<svg width="48" height="48" viewBox="0 0 48 48" fill="none" xmlns="http://www.w3.org/2000/svg">
<g filter="url(#filter0_d_124_2035)">
<circle cx="24" cy="22.0002" r="14.6667" fill="white"/>
<path d="M40 22C40 26.2435 38.3143 30.3131 35.3137 33.3137C32.3131 36.3143 28.2435 38 24 38C19.7565 38 15.6869 36.3143 12.6863 33.3137C9.68571 30.3131 8 26.2435 8 22C8 17.7565 9.68571 13.6869 12.6863 10.6863C15.6869 7.68571 19.7565 6 24 6C28.2435 6 32.3131 7.68571 35.3137 10.6863C38.3143 13.6869 40 17.7565 40 22ZM24.574 17.812C23.018 18.46 19.906 19.8 15.242 21.832C14.486 22.132 14.088 22.428 14.052 22.716C13.992 23.202 14.602 23.394 15.432 23.656L15.782 23.766C16.598 24.032 17.698 24.342 18.268 24.354C18.788 24.366 19.366 24.154 20.004 23.714C24.362 20.772 26.612 19.286 26.752 19.254C26.852 19.23 26.992 19.202 27.084 19.286C27.178 19.368 27.168 19.526 27.158 19.568C27.098 19.826 24.704 22.05 23.466 23.202C23.08 23.562 22.806 23.816 22.75 23.874C22.6267 24 22.5013 24.124 22.374 24.246C21.614 24.978 21.046 25.526 22.404 26.422C23.058 26.854 23.582 27.208 24.104 27.564C24.672 27.952 25.24 28.338 25.976 28.822C26.162 28.942 26.342 29.072 26.516 29.196C27.178 29.668 27.776 30.092 28.51 30.024C28.938 29.984 29.38 29.584 29.604 28.384C30.134 25.55 31.176 19.412 31.416 16.882C31.4306 16.6717 31.4219 16.4604 31.39 16.252C31.3712 16.0838 31.2898 15.9289 31.162 15.818C30.98 15.6924 30.7631 15.6273 30.542 15.632C29.942 15.642 29.016 15.964 24.574 17.812Z" fill="#4DB3DF"/>
</g>
<defs>
<filter id="filter0_d_124_2035" x="0" y="0" width="48" height="48" filterUnits="userSpaceOnUse" color-interpolation-filters="sRGB">
<feFlood flood-opacity="0" result="BackgroundImageFix"/>
<feColorMatrix in="SourceAlpha" type="matrix" values="0 0 0 0 0 0 0 0 0 0 0 0 0 0 0 0 0 0 127 0" result="hardAlpha"/>
<feOffset dy="2"/>
<feGaussianBlur stdDeviation="4"/>
<feColorMatrix type="matrix" values="0 0 0 0 0 0 0 0 0 0 0 0 0 0 0 0 0 0 0.2 0"/>
<feBlend mode="normal" in2="BackgroundImageFix" result="effect1_dropShadow_124_2035"/>
<feBlend mode="normal" in="SourceGraphic" in2="effect1_dropShadow_124_2035" result="shape"/>
</filter>
</defs>
</svg>
