<svg width="33" height="32" viewBox="0 0 33 32" fill="none" xmlns="http://www.w3.org/2000/svg">
<path d="M16.3333 28H8.33331V3.99997H16.3333V9.99997C16.3349 10.5299 16.5461 11.0377 16.9208 11.4124C17.2956 11.7872 17.8034 11.9984 18.3333 12H24.3333V16H26.3333V9.99997C26.3368 9.86855 26.3119 9.73792 26.2601 9.61708C26.2083 9.49624 26.1309 9.38806 26.0333 9.29997L19.0333 2.29997C18.9453 2.20232 18.8371 2.12492 18.7162 2.07313C18.5954 2.02134 18.4647 1.99638 18.3333 1.99997H8.33331C7.80337 2.00156 7.29558 2.21278 6.92085 2.58751C6.54612 2.96224 6.3349 3.47003 6.33331 3.99997V28C6.3349 28.5299 6.54612 29.0377 6.92085 29.4124C7.29558 29.7872 7.80337 29.9984 8.33331 30H16.3333V28ZM18.3333 4.39997L23.9333 9.99997H18.3333V4.39997Z" fill="#083A53"/>
<path fill-rule="evenodd" clip-rule="evenodd" d="M18.6821 28.2375L18.0619 27.1076C17.8977 26.8075 17.8532 26.451 17.9382 26.1164C18.0232 25.7818 18.2307 25.4963 18.5153 25.3226L18.8284 25.1319C18.7616 24.6505 18.7616 24.1614 18.8284 23.68L18.5153 23.4893C18.2306 23.3158 18.023 23.0305 17.938 22.6959C17.853 22.3613 17.8976 22.0049 18.0619 21.7049L18.6815 20.5757C19.0108 19.9755 19.8021 19.7508 20.3751 20.0976L20.7032 20.2974C21.0622 20.0007 21.4577 19.7565 21.8791 19.5718V19.1812C21.8791 18.4609 22.4353 17.875 23.1194 17.875H24.3597C25.0438 17.875 25.6001 18.4609 25.6001 19.1812V19.5718C26.0215 19.7565 26.4171 20.0009 26.7759 20.2981L27.104 20.0982C27.6764 19.7501 28.4684 19.9755 28.7977 20.5763L29.4172 21.7056C29.5814 22.0056 29.6259 22.362 29.5409 22.6965C29.4559 23.031 29.2484 23.3163 28.9639 23.4899L28.6507 23.6806C28.7173 24.1623 28.7173 24.6515 28.6507 25.1332L28.9639 25.3239C29.2485 25.4973 29.4561 25.7827 29.5411 26.1173C29.6261 26.4518 29.5816 26.8082 29.4172 27.1082L28.7977 28.2375C28.4671 28.8377 27.6764 29.0611 27.104 28.7149L26.7759 28.5151C26.4169 28.8118 26.0214 29.056 25.6001 29.2407V29.6312C25.6001 30.3516 25.0438 30.9375 24.3597 30.9375H23.1194C22.4353 30.9375 21.8791 30.3516 21.8791 29.6312V29.2407C21.4576 29.056 21.062 28.8116 20.7032 28.5144L20.3751 28.7143C19.804 29.0611 19.0114 28.8364 18.6821 28.2375ZM23.7396 27.5C25.4482 27.5 26.8333 26.1149 26.8333 24.4062C26.8333 22.6976 25.4482 21.3125 23.7396 21.3125C22.0309 21.3125 20.6458 22.6976 20.6458 24.4062C20.6458 26.1149 22.0309 27.5 23.7396 27.5Z" fill="#083A53"/>
</svg>
