<svg width="33" height="33" viewBox="0 0 33 33" fill="none" xmlns="http://www.w3.org/2000/svg">
<path d="M26.6666 30.5H11.6666C11.1364 30.4995 10.628 30.2886 10.253 29.9136C9.87804 29.5387 9.66716 29.0303 9.66663 28.5V22.5H11.6666V28.5H26.6666V6.5H17.6666V4.5H26.6666C27.1969 4.50053 27.7053 4.71141 28.0803 5.08637C28.4552 5.46133 28.6661 5.96973 28.6666 6.5V28.5C28.6661 29.0303 28.4552 29.5387 28.0803 29.9136C27.7053 30.2886 27.1969 30.4995 26.6666 30.5Z" fill="#083A53"/>
<path d="M17.6666 10.5H24.6666V12.5H17.6666V10.5Z" fill="#083A53"/>
<path d="M16.6666 15.5H24.6666V17.5H16.6666V15.5Z" fill="#083A53"/>
<path d="M15.6666 20.5H24.6666V22.5H15.6666V20.5Z" fill="#083A53"/>
<path d="M9.66663 19.5C8.34095 19.4987 7.06995 18.9715 6.13255 18.0341C5.19516 17.0967 4.66795 15.8257 4.66663 14.5V3.5H6.66663V14.5C6.66663 15.2956 6.9827 16.0587 7.54531 16.6213C8.10791 17.1839 8.87098 17.5 9.66663 17.5C10.4623 17.5 11.2253 17.1839 11.7879 16.6213C12.3506 16.0587 12.6666 15.2956 12.6666 14.5V5.5C12.6666 5.23478 12.5613 4.98043 12.3737 4.79289C12.1862 4.60536 11.9318 4.5 11.6666 4.5C11.4014 4.5 11.1471 4.60536 10.9595 4.79289C10.772 4.98043 10.6666 5.23478 10.6666 5.5V15.5H8.66663V5.5C8.66663 4.70435 8.9827 3.94129 9.54531 3.37868C10.1079 2.81607 10.871 2.5 11.6666 2.5C12.4623 2.5 13.2253 2.81607 13.7879 3.37868C14.3506 3.94129 14.6666 4.70435 14.6666 5.5V14.5C14.6653 15.8257 14.1381 17.0967 13.2007 18.0341C12.2633 18.9715 10.9923 19.4987 9.66663 19.5Z" fill="#083A53"/>
</svg>
