<svg width="33" height="33" viewBox="0 0 33 33" fill="none" xmlns="http://www.w3.org/2000/svg">
<path d="M16.3333 14.5C15.5422 14.5 14.7688 14.2654 14.111 13.8259C13.4532 13.3864 12.9405 12.7616 12.6378 12.0307C12.335 11.2998 12.2558 10.4956 12.4102 9.71964C12.5645 8.94372 12.9455 8.23098 13.5049 7.67157C14.0643 7.11216 14.777 6.7312 15.553 6.57686C16.3289 6.42252 17.1331 6.50173 17.864 6.80448C18.595 7.10723 19.2197 7.61992 19.6592 8.27772C20.0987 8.93552 20.3333 9.70888 20.3333 10.5C20.3301 11.5599 19.9077 12.5755 19.1582 13.3249C18.4088 14.0744 17.3932 14.4968 16.3333 14.5ZM16.3333 8.5C15.9378 8.5 15.5511 8.6173 15.2222 8.83706C14.8933 9.05683 14.6369 9.36918 14.4856 9.73464C14.3342 10.1001 14.2946 10.5022 14.3717 10.8902C14.4489 11.2781 14.6394 11.6345 14.9191 11.9142C15.1988 12.1939 15.5552 12.3844 15.9431 12.4616C16.3311 12.5387 16.7332 12.4991 17.0987 12.3478C17.4641 12.1964 17.7765 11.94 17.9963 11.6111C18.216 11.2822 18.3333 10.8956 18.3333 10.5C18.3317 9.97006 18.1205 9.46227 17.7458 9.08754C17.3711 8.71281 16.8633 8.50158 16.3333 8.5Z" fill="#083A53"/>
<path d="M24.3333 2.5H8.33331C7.80304 2.50053 7.29464 2.71141 6.91968 3.08637C6.54473 3.46133 6.33384 3.96973 6.33331 4.5V28.5C6.33384 29.0303 6.54473 29.5387 6.91968 29.9136C7.29464 30.2886 7.80304 30.4995 8.33331 30.5H24.3333C24.8636 30.4995 25.372 30.2886 25.7469 29.9136C26.1219 29.5387 26.3328 29.0303 26.3333 28.5V4.5C26.3328 3.96973 26.1219 3.46133 25.7469 3.08637C25.372 2.71141 24.8636 2.50053 24.3333 2.5ZM12.3333 24.5V18.5C12.3253 18.3666 12.3457 18.233 12.3931 18.108C12.4405 17.9831 12.5139 17.8696 12.6084 17.7751C12.7029 17.6806 12.8164 17.6072 12.9413 17.5598C13.0663 17.5124 13.1999 17.492 13.3333 17.5H19.3333C19.4667 17.492 19.6003 17.5124 19.7253 17.5598C19.8502 17.6072 19.9637 17.6806 20.0582 17.7751C20.1527 17.8696 20.2261 17.9831 20.2735 18.108C20.321 18.233 20.3413 18.3666 20.3333 18.5V24.5H18.3333V28.5H14.3333V24.5H12.3333ZM20.3333 28.5V26.5C20.8633 26.4984 21.371 26.2872 21.7458 25.9125C22.1205 25.5377 22.3317 25.0299 22.3333 24.5V18.5C22.3406 18.104 22.268 17.7106 22.1199 17.3433C21.9717 16.9761 21.751 16.6424 21.471 16.3624C21.1909 16.0823 20.8573 15.8616 20.49 15.7134C20.1227 15.5653 19.7293 15.4927 19.3333 15.5H13.3333C12.9373 15.4927 12.5439 15.5653 12.1767 15.7134C11.8094 15.8616 11.4757 16.0823 11.1957 16.3624C10.9156 16.6424 10.6949 16.9761 10.5467 17.3433C10.3986 17.7106 10.326 18.104 10.3333 18.5V24.5C10.3349 25.0299 10.5461 25.5377 10.9208 25.9125C11.2956 26.2872 11.8034 26.4984 12.3333 26.5V28.5H8.33331V4.5H24.3333V28.5H20.3333Z" fill="#083A53"/>
</svg>
