<svg width="60" height="60" viewBox="0 0 60 60" fill="none" xmlns="http://www.w3.org/2000/svg">
<path d="M28.8888 43.7037C28.8863 45.166 28.6416 46.6177 28.1647 48H40.4999C41.0909 48 41.6761 47.8836 42.222 47.6575C42.768 47.4313 43.2641 47.0999 43.6819 46.682C44.0998 46.2641 44.4313 45.7681 44.6574 45.2221C44.8836 44.6761 44.9999 44.091 44.9999 43.5V24H31.4999C30.909 24 30.3238 23.8836 29.7779 23.6575C29.2319 23.4313 28.7358 23.0999 28.3179 22.682C27.9001 22.2641 27.5686 21.7681 27.3425 21.2221C27.1163 20.6761 26.9999 20.091 26.9999 19.5V6H16.4999C15.3065 6.00002 14.1619 6.47413 13.318 7.31804C12.4741 8.16195 12 9.30653 11.9999 10.5V30.8645C13.9794 30.3093 16.0605 30.2206 18.08 30.6054C20.0995 30.9902 22.0022 31.838 23.6388 33.0821C25.2754 34.3263 26.6012 35.9329 27.5121 37.7759C28.4231 39.6188 28.8943 41.6479 28.8888 43.7037Z" fill="white"/>
<path d="M50.1185 24.8786C49.8399 24.6 49.5091 24.379 49.1451 24.2283C48.7811 24.0775 48.391 24 47.997 24V42C47.997 44.3869 47.0488 46.6761 45.3609 48.364C43.6731 50.0518 41.3839 51 38.997 51H32.997C32.9968 52.0218 32.8233 53.0362 32.4839 54H39.1802C42.3146 53.9992 45.3203 52.7535 47.5363 50.537C49.7524 48.3204 50.9973 45.3143 50.9973 42.18V27C50.9973 26.606 50.9197 26.2159 50.7689 25.8519C50.6181 25.4879 50.3971 25.1572 50.1185 24.8786Z" fill="white"/>
<path d="M31.4999 21H44.2499L29.9999 6.74992V19.4999C29.9999 19.8977 30.158 20.2793 30.4393 20.5606C30.7206 20.8419 31.1021 20.9999 31.4999 20.9999V21Z" fill="white"/>
<path d="M26.6666 43.7037C26.6666 41.5066 26.0152 39.3588 24.7948 37.5319C23.5744 35.7049 21.8398 34.2807 19.8101 33.4394C17.7805 32.5981 15.547 32.3775 13.392 32.8053C11.2369 33.2331 9.25709 34.2902 7.70272 35.843C6.14836 37.3958 5.08925 39.3746 4.65926 41.5292C4.22928 43.6838 4.44772 45.9175 5.28698 47.948C6.12624 49.9785 7.54864 51.7146 9.37438 52.9368C11.2001 54.1591 13.3472 54.8126 15.5443 54.8148C18.4917 54.813 21.3179 53.6422 23.403 51.5591C25.4882 49.4761 26.6619 46.651 26.6666 43.7037ZM21.029 49.1768C20.8915 49.3144 20.7282 49.4235 20.5484 49.498C20.3687 49.5725 20.1761 49.6108 19.9815 49.6108C19.787 49.6108 19.5943 49.5725 19.4146 49.498C19.2349 49.4235 19.0716 49.3144 18.934 49.1768L14.074 44.3173V37.5536C14.074 37.1607 14.2301 36.7839 14.5079 36.5061C14.7858 36.2282 15.1626 36.0721 15.5555 36.0721C15.9484 36.0721 16.3252 36.2282 16.6031 36.5061C16.8809 36.7839 17.037 37.1607 17.037 37.5536V43.0904L21.029 47.082C21.3068 47.3598 21.4628 47.7366 21.4628 48.1295C21.4628 48.5224 21.3068 48.8991 21.029 49.177V49.1768Z" fill="white"/>
</svg>
