<svg width="48" height="48" viewBox="0 0 48 48" fill="none" xmlns="http://www.w3.org/2000/svg">
<g filter="url(#filter0_d_124_2034)">
<path d="M24 38C32.8366 38 40 30.8366 40 22C40 13.1634 32.8366 6 24 6C15.1634 6 8 13.1634 8 22C8 30.8366 15.1634 38 24 38Z" fill="#FF0000"/>
<path d="M29.0411 15.9727C28.3836 15.9727 27.9452 16.411 27.9452 17.0685C27.9452 17.7261 28.4932 18.1644 29.0411 18.1644C29.6986 18.1644 30.137 17.7261 30.137 17.0685C30.137 16.411 29.5891 15.9727 29.0411 15.9727Z" fill="white"/>
<path d="M24.1096 17.397C21.5891 17.397 19.5069 19.4792 19.5069 21.9997C19.5069 24.5203 21.5891 26.6025 24.1096 26.6025C26.6302 26.6025 28.7123 24.5203 28.7123 21.9997C28.7123 19.4792 26.6302 17.397 24.1096 17.397ZM24.1096 24.9586C22.4658 24.9586 21.1507 23.6435 21.1507 21.9997C21.1507 20.3559 22.4658 19.0408 24.1096 19.0408C25.7534 19.0408 27.0685 20.3559 27.0685 21.9997C27.0685 23.6435 25.7534 24.9586 24.1096 24.9586Z" fill="white"/>
<path d="M27.726 31.4245H20.274C17.2055 31.4245 14.5753 28.904 14.5753 25.7259V18.2738C14.5753 15.0957 17.2055 12.5752 20.274 12.5752H27.726C30.7945 12.5752 33.3151 15.0957 33.3151 18.1642V25.7259C33.4247 28.904 30.9041 31.4245 27.726 31.4245ZM20.274 14.3286C18.0822 14.3286 16.4384 16.082 16.4384 18.1642V25.7259C16.4384 27.9177 18.1918 29.5615 20.274 29.5615H27.726C29.9178 29.5615 31.5616 27.8081 31.5616 25.7259V18.2738C31.5616 16.082 29.8082 14.4382 27.726 14.4382H20.274V14.3286Z" fill="white"/>
</g>
<defs>
<filter id="filter0_d_124_2034" x="0" y="0" width="48" height="48" filterUnits="userSpaceOnUse" color-interpolation-filters="sRGB">
<feFlood flood-opacity="0" result="BackgroundImageFix"/>
<feColorMatrix in="SourceAlpha" type="matrix" values="0 0 0 0 0 0 0 0 0 0 0 0 0 0 0 0 0 0 127 0" result="hardAlpha"/>
<feOffset dy="2"/>
<feGaussianBlur stdDeviation="4"/>
<feColorMatrix type="matrix" values="0 0 0 0 0 0 0 0 0 0 0 0 0 0 0 0 0 0 0.2 0"/>
<feBlend mode="normal" in2="BackgroundImageFix" result="effect1_dropShadow_124_2034"/>
<feBlend mode="normal" in="SourceGraphic" in2="effect1_dropShadow_124_2034" result="shape"/>
</filter>
</defs>
</svg>
