<svg width="61" height="60" viewBox="0 0 61 60" fill="none" xmlns="http://www.w3.org/2000/svg">
<path d="M45.0284 49.7348L44.081 51.9119L41.904 52.4593L41.1025 51.86L41.064 51.9274L44.1677 57.3052L48.8277 54.6141L46.0832 49.8607L45.0284 49.7348Z" fill="white"/>
<path d="M39.1211 51.7516L38.1979 52.4408L37.4053 52.2643C37.1514 52.2079 36.9359 52.1536 36.7666 52.1037L35.9773 51.8657L35.0508 49.7347L33.9999 49.8598L31.2551 54.6139L35.9152 57.3048L39.1211 51.7516Z" fill="white"/>
<path d="M29.2686 45.1673L29.0315 44.3747C28.978 44.1974 28.9227 43.9659 28.8659 43.6961L28.7006 42.909L30.0664 41.0912L28.6869 39.2377L28.8747 38.4362C28.9278 38.2105 28.9763 38.0166 29.0189 37.859L29.2435 37.0343L31.4029 36.1069L31.1478 33.8333L31.6784 33.2423C31.8104 33.0947 31.9544 32.9431 32.1103 32.7873L32.7194 32.1768L35.0509 32.456L35.9645 30.3542L36.7127 30.1039C36.9467 30.0303 37.1846 29.9694 37.4252 29.9213L38.2035 29.7571L40.0406 31.1149L41.8874 29.7499L42.6752 29.926C42.929 29.9824 43.1468 30.0367 43.3175 30.088L44.1027 30.3239L45.0293 32.456L47.3601 32.1768L47.9178 32.7352V24H34.4166C33.5276 23.9994 32.6585 23.7361 31.9187 23.2432C31.1788 22.7503 30.601 22.0498 30.2579 21.2296C30.0223 20.6471 29.9062 20.0231 29.9166 19.3947V6H19.5218C18.8936 5.98959 18.2697 6.10564 17.6872 6.34126C16.8671 6.68438 16.1666 7.26216 15.6737 8.00206C15.1808 8.74195 14.9175 9.61097 14.9169 10.5V41.2536C14.9169 43.0428 15.6276 44.7588 16.8927 46.0239C18.1578 47.2891 19.8737 47.9999 21.6629 48H31.1873L31.4026 46.0831L29.2686 45.1673Z" fill="white"/>
<path d="M34.4166 21H47.1666L32.9166 6.74992V19.4999C32.9166 19.8977 33.0747 20.2793 33.356 20.5606C33.6373 20.8419 34.0188 20.9999 34.4166 20.9999V21Z" fill="white"/>
<path d="M21.1204 51C18.7334 51 16.4442 50.0518 14.7564 48.364C13.0686 46.6761 12.1204 44.3869 12.1204 42V24C11.3247 24 10.5616 24.3161 9.99904 24.8787C9.43643 25.4413 9.12036 26.2043 9.12036 27V42.18C9.12036 45.3143 10.3653 48.3204 12.5813 50.537C14.7973 52.7535 17.8031 53.9992 20.9374 54H27.6337C27.2943 53.0362 27.1209 52.0218 27.1207 51H21.1204Z" fill="white"/>
<path d="M47.8023 41.0953L49.4813 38.8399L49.3511 38.3233L46.77 37.2148L47.0833 34.424C46.9617 34.2907 46.8388 34.1614 46.7151 34.037L43.9299 34.3698L42.8055 31.7825C42.6674 31.7413 42.493 31.6987 42.289 31.6538L40.04 33.3168L37.7896 31.6538C37.6155 31.6876 37.4433 31.7306 37.2738 31.7825L36.1487 34.3704L33.3635 34.0376C33.2311 34.171 33.1078 34.3002 32.995 34.4253V34.4261L33.3085 37.2154L30.7268 38.3236C30.6888 38.4644 30.6453 38.6383 30.598 38.8409L30.5977 38.8416L32.276 41.0956L30.5981 43.3313C30.643 43.5433 30.6853 43.7256 30.7272 43.8659V43.8666L33.309 44.9748L32.9954 47.7656H32.9961C33.168 47.937 33.288 48.0659 33.3647 48.1533H33.3654L36.149 47.8206L37.2735 50.4074H37.2743C37.4088 50.4479 37.5846 50.4906 37.79 50.5369L40.0397 48.8554L42.2887 50.5365L42.8055 50.4074L43.9304 47.8206L46.7147 48.1533L46.7161 48.1526C46.8471 48.021 46.97 47.8907 47.0836 47.7656L46.7703 44.9748L49.3528 43.8652C49.3911 43.7234 49.4339 43.5433 49.4808 43.3306L47.8023 41.0953Z" fill="white"/>
</svg>
