<svg width="61" height="60" viewBox="0 0 61 60" fill="none" xmlns="http://www.w3.org/2000/svg">
<path d="M27.3333 19.5V6H16.8333C15.6398 6 14.4952 6.47411 13.6513 7.31802C12.8074 8.16193 12.3333 9.30653 12.3333 10.5V27.51C14.0311 28.1109 15.5097 29.207 16.5782 30.6568C17.6467 32.1066 18.2559 33.8434 18.3273 35.643L22.6503 31.317C23.4945 30.4728 24.6395 29.9986 25.8333 29.9986C27.0272 29.9986 28.1721 30.4728 29.0163 31.317C29.8605 32.1612 30.3348 33.3061 30.3348 34.5C30.3348 35.6939 29.8605 36.8388 29.0163 37.683L24.6903 42.006C26.4894 42.078 28.2255 42.6875 29.6747 43.756C31.1239 44.8244 32.2196 46.3027 32.8203 48H40.8333C42.0268 48 43.1714 47.5259 44.0153 46.682C44.8592 45.8381 45.3333 44.6935 45.3333 43.5V24H31.8333C30.6398 24 29.4952 23.5259 28.6513 22.682C27.8074 21.8381 27.3333 20.6935 27.3333 19.5ZM15.3333 36C15.3333 37.5913 14.7012 39.1174 13.576 40.2426C12.4507 41.3679 10.9246 42 9.33331 42C7.74201 42 6.21589 41.3679 5.09067 40.2426C3.96545 39.1174 3.33331 37.5913 3.33331 36C3.33331 34.4087 3.96545 32.8826 5.09067 31.7574C6.21589 30.6321 7.74201 30 9.33331 30C10.9246 30 12.4507 30.6321 13.576 31.7574C14.7012 32.8826 15.3333 34.4087 15.3333 36ZM12.3333 36C12.3333 35.2044 12.0172 34.4413 11.4546 33.8787C10.892 33.3161 10.129 33 9.33331 33C8.53766 33 7.7746 33.3161 7.21199 33.8787C6.64938 34.4413 6.33331 35.2044 6.33331 36C6.33331 36.7956 6.64938 37.5587 7.21199 38.1213C7.7746 38.6839 8.53766 39 9.33331 39C10.129 39 10.892 38.6839 11.4546 38.1213C12.0172 37.5587 12.3333 36.7956 12.3333 36ZM8.89531 53.562C8.61365 53.8437 8.23164 54.0019 7.83331 54.0019C7.43499 54.0019 7.05297 53.8437 6.77131 53.562C6.48965 53.2803 6.33142 52.8983 6.33142 52.5C6.33142 52.1017 6.48965 51.7197 6.77131 51.438L24.7713 33.438C25.053 33.1563 25.435 32.9981 25.8333 32.9981C26.2316 32.9981 26.6137 33.1563 26.8953 33.438C27.177 33.7197 27.3352 34.1017 27.3352 34.5C27.3352 34.8983 27.177 35.2803 26.8953 35.562L8.89531 53.562ZM39.5133 54H32.8173C33.1473 53.061 33.3303 52.05 33.3303 51H39.3303C41.7173 51 44.0064 50.0518 45.6943 48.364C47.3821 46.6761 48.3303 44.3869 48.3303 42V24C49.126 24 49.889 24.3161 50.4516 24.8787C51.0142 25.4413 51.3303 26.2044 51.3303 27V42.18C51.3303 45.3143 50.0854 48.3204 47.8694 50.5369C45.6533 52.7535 42.6477 53.9992 39.5133 54ZM24.3333 45C25.1368 44.9742 25.9373 45.1101 26.6872 45.3997C27.4371 45.6892 28.1212 46.1265 28.6989 46.6856C29.2765 47.2447 29.7359 47.9142 30.0498 48.6543C30.3637 49.3944 30.5256 50.19 30.526 50.9939C30.5264 51.7978 30.3653 52.5936 30.0521 53.334C29.739 54.0744 29.2803 54.7443 28.7032 55.304C28.1261 55.8637 27.4425 56.3017 26.6928 56.592C25.9432 56.8823 25.1428 57.019 24.3393 56.994C22.7816 56.9455 21.3039 56.2928 20.2189 55.1741C19.1339 54.0554 18.5268 52.5584 18.526 50.9999C18.5252 49.4415 19.1309 47.9438 20.2147 46.824C21.2986 45.7042 22.7757 45.05 24.3333 45ZM21.3333 51C21.3333 51.7957 21.6494 52.5587 22.212 53.1213C22.7746 53.6839 23.5377 54 24.3333 54C25.129 54 25.892 53.6839 26.4546 53.1213C27.0172 52.5587 27.3333 51.7957 27.3333 51C27.3333 50.2043 27.0172 49.4413 26.4546 48.8787C25.892 48.3161 25.129 48 24.3333 48C23.5377 48 22.7746 48.3161 22.212 48.8787C21.6494 49.4413 21.3333 50.2043 21.3333 51ZM30.3333 19.5V6.75L44.5833 21H31.8333C31.4355 21 31.054 20.842 30.7727 20.5607C30.4913 20.2794 30.3333 19.8978 30.3333 19.5Z" fill="white"/>
</svg>
