<svg width="48" height="48" viewBox="0 0 48 48" fill="none" xmlns="http://www.w3.org/2000/svg">
<g clip-path="url(#clip0_124_2033)" filter="url(#filter0_d_124_2033)">
<circle cx="24" cy="22.0002" r="14.6667" fill="white"/>
<path d="M24 6C15.1634 6 8.00002 13.1633 8.00002 22C8.00002 30.8367 15.1634 38 24 38C32.8367 38 40 30.8367 40 22C40 13.1633 32.8367 6 24 6ZM30.1534 24.0517C30.1534 24.0517 31.5684 25.4483 31.9167 26.0967C31.9267 26.11 31.9317 26.1233 31.935 26.13C32.0767 26.3683 32.11 26.5533 32.04 26.6917C31.9234 26.9217 31.5234 27.035 31.3867 27.045H28.8867C28.7134 27.045 28.35 27 27.91 26.6967C27.5717 26.46 27.2384 26.0717 26.9134 25.6933C26.4284 25.13 26.0084 24.6433 25.585 24.6433C25.5313 24.6432 25.4778 24.6517 25.4267 24.6683C25.1067 24.7717 24.6967 25.2283 24.6967 26.445C24.6967 26.825 24.3967 27.0433 24.185 27.0433H23.04C22.65 27.0433 20.6184 26.9067 18.8184 25.0083C16.615 22.6833 14.6317 18.02 14.615 17.9767C14.49 17.675 14.7484 17.5133 15.03 17.5133H17.555C17.8917 17.5133 18.0017 17.7183 18.0784 17.9C18.1684 18.1117 18.4984 18.9533 19.04 19.9C19.9184 21.4433 20.4567 22.07 20.8884 22.07C20.9693 22.069 21.0488 22.0485 21.12 22.01C21.6834 21.6967 21.5784 19.6883 21.5534 19.2717C21.5534 19.1933 21.5517 18.3733 21.2634 17.98C21.0567 17.695 20.705 17.5867 20.4917 17.5467C20.578 17.4275 20.6918 17.3309 20.8234 17.265C21.21 17.0717 21.9067 17.0433 22.5984 17.0433H22.9834C23.7334 17.0533 23.9267 17.1017 24.1984 17.17C24.7484 17.3017 24.76 17.6567 24.7117 18.8717C24.6967 19.2167 24.6817 19.6067 24.6817 20.0667C24.6817 20.1667 24.6767 20.2733 24.6767 20.3867C24.66 21.005 24.64 21.7067 25.0767 21.995C25.1336 22.0307 25.1995 22.0498 25.2667 22.05C25.4184 22.05 25.875 22.05 27.1117 19.9283C27.4931 19.2454 27.8245 18.5358 28.1034 17.805C28.1284 17.7617 28.2017 17.6283 28.2884 17.5767C28.3523 17.5441 28.4232 17.5275 28.495 17.5283H31.4634C31.7867 17.5283 32.0084 17.5767 32.05 17.7017C32.1234 17.9 32.0367 18.505 30.6817 20.34L30.0767 21.1383C28.8484 22.7483 28.8484 22.83 30.1534 24.0517Z" fill="#367E9D"/>
</g>
<defs>
<filter id="filter0_d_124_2033" x="0" y="0" width="48" height="48" filterUnits="userSpaceOnUse" color-interpolation-filters="sRGB">
<feFlood flood-opacity="0" result="BackgroundImageFix"/>
<feColorMatrix in="SourceAlpha" type="matrix" values="0 0 0 0 0 0 0 0 0 0 0 0 0 0 0 0 0 0 127 0" result="hardAlpha"/>
<feOffset dy="2"/>
<feGaussianBlur stdDeviation="4"/>
<feColorMatrix type="matrix" values="0 0 0 0 0 0 0 0 0 0 0 0 0 0 0 0 0 0 0.2 0"/>
<feBlend mode="normal" in2="BackgroundImageFix" result="effect1_dropShadow_124_2033"/>
<feBlend mode="normal" in="SourceGraphic" in2="effect1_dropShadow_124_2033" result="shape"/>
</filter>
<clipPath id="clip0_124_2033">
<rect width="32" height="32" fill="white" transform="translate(8 6)"/>
</clipPath>
</defs>
</svg>
