<svg width="33" height="32" viewBox="0 0 33 32" fill="none" xmlns="http://www.w3.org/2000/svg">
<path d="M24.6666 30C23.4799 30 22.3199 29.6481 21.3332 28.9888C20.3465 28.3295 19.5775 27.3925 19.1234 26.2961C18.6692 25.1997 18.5504 23.9933 18.7819 22.8295C19.0134 21.6656 19.5849 20.5965 20.424 19.7574C21.2631 18.9182 22.3322 18.3468 23.4961 18.1153C24.66 17.8838 25.8664 18.0026 26.9627 18.4567C28.0591 18.9109 28.9962 19.6799 29.6554 20.6666C30.3147 21.6533 30.6666 22.8133 30.6666 24C30.6648 25.5907 30.032 27.1158 28.9072 28.2406C27.7824 29.3654 26.2574 29.9982 24.6666 30ZM24.6666 20C23.8755 20 23.1021 20.2346 22.4443 20.6741C21.7866 21.1137 21.2739 21.7384 20.9711 22.4693C20.6684 23.2002 20.5891 24.0044 20.7435 24.7804C20.8978 25.5563 21.2788 26.269 21.8382 26.8284C22.3976 27.3878 23.1103 27.7688 23.8863 27.9231C24.6622 28.0775 25.4665 27.9983 26.1974 27.6955C26.9283 27.3928 27.553 26.8801 27.9925 26.2223C28.432 25.5645 28.6666 24.7911 28.6666 24C28.6653 22.9395 28.2435 21.9229 27.4936 21.173C26.7437 20.4232 25.7271 20.0013 24.6666 20Z" fill="#083A53"/>
<path d="M8.66663 22H16.6666V24H8.66663V22Z" fill="#083A53"/>
<path d="M8.66663 16H18.6666V18H8.66663V16Z" fill="#083A53"/>
<path d="M16.6666 28H6.66663V3.99997H14.6666V9.99997C14.6682 10.5299 14.8794 11.0377 15.2542 11.4124C15.6289 11.7872 16.1367 11.9984 16.6666 12H22.6666V15H24.6666V9.99997C24.6702 9.86855 24.6452 9.73792 24.5934 9.61708C24.5416 9.49624 24.4642 9.38806 24.3666 9.29997L17.3666 2.29997C17.2786 2.20232 17.1704 2.12492 17.0496 2.07313C16.9287 2.02134 16.7981 1.99638 16.6666 1.99997H6.66663C6.13668 2.00156 5.62889 2.21278 5.25416 2.58751C4.87943 2.96224 4.66821 3.47003 4.66663 3.99997V28C4.66821 28.5299 4.87943 29.0377 5.25416 29.4124C5.62889 29.7872 6.13668 29.9984 6.66663 30H16.6666V28ZM16.6666 4.39997L22.2666 9.99997H16.6666V4.39997Z" fill="#083A53"/>
</svg>
