<svg width="33" height="32" viewBox="0 0 33 32" fill="none" xmlns="http://www.w3.org/2000/svg">
<path d="M9.16663 16L8.45952 16.7071L9.16663 17.4142L9.87373 16.7071L9.16663 16ZM9.87373 15.2929L6.37374 11.7929L4.95952 13.2071L8.45952 16.7071L9.87373 15.2929ZM13.4595 10.2929L8.45952 15.2929L9.87373 16.7071L14.8737 11.7071L13.4595 10.2929Z" fill="#083A53"/>
<path d="M15.6666 14H20.6666V16H13.6666L15.6666 14Z" fill="#083A53"/>
<path fill-rule="evenodd" clip-rule="evenodd" d="M6.66663 30H13.6666V28H6.66663V17H4.66663V28C4.66716 28.5303 4.87804 29.0387 5.253 29.4136C5.62796 29.7886 6.13636 29.9995 6.66663 30ZM4.66663 10V4C4.66716 3.46973 4.87804 2.96133 5.253 2.58637C5.62796 2.21141 6.13636 2.00053 6.66663 2H22.6666C23.1969 2.00053 23.7053 2.21141 24.0803 2.58637C24.4552 2.96133 24.6661 3.46973 24.6666 4V16H22.6666V4H6.66663V10H4.66663Z" fill="#083A53"/>
<path fill-rule="evenodd" clip-rule="evenodd" d="M16.4529 28.3625L15.8327 27.2326C15.6685 26.9325 15.624 26.576 15.709 26.2414C15.794 25.9068 16.0015 25.6213 16.2861 25.4476L16.5993 25.2569C16.5324 24.7755 16.5324 24.2864 16.5993 23.805L16.2861 23.6143C16.0014 23.4408 15.7938 23.1555 15.7088 22.8209C15.6238 22.4863 15.6684 22.1299 15.8327 21.8299L16.4523 20.7007C16.7816 20.1005 17.5729 19.8758 18.146 20.2226L18.474 20.4224C18.833 20.1257 19.2286 19.8815 19.6499 19.6968V19.3062C19.6499 18.5859 20.2062 18 20.8902 18H22.1305C22.8146 18 23.3709 18.5859 23.3709 19.3062V19.6968C23.7923 19.8815 24.1879 20.1259 24.5467 20.4231L24.8748 20.2232C25.4472 19.8751 26.2392 20.1005 26.5685 20.7013L27.188 21.8306C27.3522 22.1306 27.3967 22.487 27.3117 22.8215C27.2267 23.156 27.0192 23.4413 26.7347 23.6149L26.4215 23.8056C26.4881 24.2873 26.4881 24.7765 26.4215 25.2582L26.7347 25.4489C27.0193 25.6223 27.2269 25.9077 27.312 26.2423C27.397 26.5768 27.3524 26.9332 27.188 27.2332L26.5685 28.3625C26.2379 28.9627 25.4472 29.1861 24.8748 28.8399L24.5467 28.6401C24.1878 28.9368 23.7922 29.181 23.3709 29.3657V29.7562C23.3709 30.4766 22.8146 31.0625 22.1305 31.0625H20.8902C20.2062 31.0625 19.6499 30.4766 19.6499 29.7562V29.3657C19.2284 29.181 18.8328 28.9366 18.474 28.6394L18.146 28.8393C17.5748 29.1861 16.7822 28.9614 16.4529 28.3625ZM21.5104 27.625C23.219 27.625 24.6041 26.2399 24.6041 24.5312C24.6041 22.8226 23.219 21.4375 21.5104 21.4375C19.8017 21.4375 18.4166 22.8226 18.4166 24.5312C18.4166 26.2399 19.8017 27.625 21.5104 27.625Z" fill="#083A53"/>
</svg>
