<svg xmlns="http://www.w3.org/2000/svg" viewBox="0 0 386.06 235.97"><defs><style>.cls-1{fill:#fff;}.cls-2{fill:#0c79b1;}.cls-3{fill:#009746;}.cls-4{fill:#43aee4;}.cls-5{fill:#083a53;}.cls-6{fill:#2f3542;}</style></defs><title>Ресурс 3</title><g id="Слой_2" data-name="Слой 2"><g id="Слой_1-2" data-name="Слой 1"><path class="cls-1" d="M185.82,176.92c-.23,0-.46.12-.46.35a4.07,4.07,0,0,0-.12,1.4v5.38a4.49,4.49,0,0,0,.12,1.52c.12.23.23.35.46.35s.47-.12.47-.23a3.32,3.32,0,0,0,.12-1.29v-5.61c0-.82,0-1.29-.12-1.4C186.17,177,186.06,176.92,185.82,176.92Z"/><path class="cls-1" d="M183.61,168.15a.64.64,0,0,0,.58-.35,5.84,5.84,0,0,0,.12-1.75v-7.25a4.07,4.07,0,0,0-.12-1.4c-.12-.23-.23-.35-.46-.35a.6.6,0,0,0-.46.23,4.09,4.09,0,0,0-.12,1.52v7.37a5.84,5.84,0,0,0,.12,1.75C183.27,168,183.38,168.15,183.61,168.15Z"/><path class="cls-1" d="M175.48,176.92c-.23,0-.46.12-.46.23a3,3,0,0,0-.12,1.29v.93h1.16v-.93a3.32,3.32,0,0,0-.12-1.29A.6.6,0,0,0,175.48,176.92Z"/><path class="cls-1" d="M215.69,176.92c-.23,0-.46.12-.46.35a4.07,4.07,0,0,0-.12,1.4v5.38a4.49,4.49,0,0,0,.12,1.52c.12.23.23.35.46.35s.46-.12.46-.23a3.29,3.29,0,0,0,.12-1.29v-5.61c0-.82,0-1.29-.12-1.4C216,177,215.92,176.92,215.69,176.92Z"/><path class="cls-1" d="M205.35,157a.6.6,0,0,0-.46.23,4.09,4.09,0,0,0-.12,1.52v7.37a5.84,5.84,0,0,0,.12,1.75c.12.23.23.35.46.35a.64.64,0,0,0,.58-.35,5.84,5.84,0,0,0,.12-1.75v-7.25a4.07,4.07,0,0,0-.12-1.4C205.81,157.16,205.69,157,205.35,157Z"/><path class="cls-1" d="M194.54,168.15a.64.64,0,0,0,.58-.35,5.84,5.84,0,0,0,.12-1.75v-7.25a4.07,4.07,0,0,0-.12-1.4c-.12-.23-.23-.35-.46-.35a.6.6,0,0,0-.46.23,4.09,4.09,0,0,0-.12,1.52v7.37a5.84,5.84,0,0,0,.12,1.75C194.07,168,194.19,168.15,194.54,168.15Z"/><path class="cls-1" d="M110.4,166.16l2.44.93,3.83-2.92-1.74-.82Z"/><path class="cls-1" d="M97.73,175.16l3.14,1.64,4.18-3.74-2.79-1.17Z"/><path class="cls-1" d="M130,156.92l-1.63-.47-3,1.4,1.63.7Z"/><path class="cls-1" d="M273.56,162.07,277.4,165l2.44-.94-4.53-2.69Z"/><path class="cls-1" d="M260.08,154.82l3.14,1.75,1.63-.82-3-1.4Z"/><path class="cls-1" d="M292.39,173.06l-4.53-3.27L285.07,171l4.3,3.74Z"/><path class="cls-1" d="M225.8,176.92a.61.61,0,0,0-.46.23,3,3,0,0,0-.12,1.29v5.85a2.65,2.65,0,0,0,.12,1.17c.12.23.23.23.46.23a.6.6,0,0,0,.46-.23,2.33,2.33,0,0,0,.12-1.05v-6a3.32,3.32,0,0,0-.12-1.29A.61.61,0,0,0,225.8,176.92Z"/><path class="cls-1" d="M236,176.92c-.23,0-.47.12-.47.23a3,3,0,0,0-.12,1.29v.93h1.16v-.93a3.29,3.29,0,0,0-.12-1.29A.6.6,0,0,0,236,176.92Z"/><path class="cls-2" d="M50,120.91C50,92.61,73.45,67.47,109.36,52c-42,13.91-69.73,38-69.73,65.48,0,17.42,11.27,33.56,30.22,46.54C57.29,151.31,50,136.58,50,120.91Z"/><path class="cls-2" d="M276.7,52c36,15.44,59.38,40.46,59.38,68.87,0,15.79-7.2,30.52-19.87,43.15,18.94-13,30.22-29.12,30.22-46.54C346.43,90,318.65,65.95,276.7,52Z"/><path class="cls-1" d="M312.61,65a175,175,0,0,0-34.86-16.49c-25.33-8.89-54.62-13.8-84.6-13.8s-59.27,4.91-84.6,13.8A181.67,181.67,0,0,0,73.68,65C60.43,73.32,49.85,82.9,43.23,92.73c-5.69,8.3-8.48,16.84-8.48,25.14s2.91,16.84,8.48,25.14c5.69,8.54,14.29,16.72,25,24.09,1.74,1.29,3.6,2.46,5.46,3.63C104.47,190,148.05,201,193.26,201s88.67-11,119.58-30.29c1.86-1.17,3.72-2.34,5.46-3.62,10.69-7.37,19.29-15.67,25-24.09s8.48-16.84,8.48-25.14-2.9-16.84-8.48-25.14C336.32,82.9,325.86,73.32,312.61,65ZM267.29,51.8c2.79.94,5.35,2,8,3.16A128.07,128.07,0,0,1,305.87,72.5c-2.09,0-4.18.12-6.27.23-10.46.94-20.92,4.44-29.17,12.75a24.57,24.57,0,0,1-5.35,4l-.23-.94L262.17,75.3h4.77L268.22,74l1-1.05-.23-1.4-.81-4.91-.12-.7-.46-.58-.46-.58-.81-1.05h-4.65l-1.39-7.37C262.75,54.72,265.08,53.09,267.29,51.8Zm-.7,98.92-9.65-1.52-9.06-1.52-.7-.47L237.07,96.94l.46-.47h13.6l.7.7,12.09,50.63.7.7h4.77l.7-.7-10.81-50-5.58-25.49-.58-.47-12.43-.7-.7-.7-.46-1.52-1.63-9.35-.7-.7-66.71-8.07V48.53l83.67,10.41.46-.47-.81-6.31.35-.35,2.32.12,2.79,14.27.46.47H265l.46.58.81,4.91-.46.47H259.5l-.58.58,3.25,16,7.21,33.68,5,24.09.81,3.27.58,1.29,3,.94,4.3,1.05.58.94Zm-56.36-4.09-.35-.35v-2.69l-4.07-56.95L204.07,60.1l.58-.58,22.78,12.16.81,1.05,13.83,63.84,1.4,8v2.1l-.35,1.05ZM106.8,156.46l-.47-.59,19.87-7.6,24.87-87.82h10.81l-17.31,87.82Zm65.31-51.22h8.25l.23.23-4.18,40.46-.46.47-27,1.29-.47-.59L165,62.68h1l7.55,8.54v.94l-1.74,32.16ZM187,70.74l.35-1.29,12.32-12.28,1.28.12,6.16,86.41v2.92l-.58.58-26,.47h-.7l-.58-1.4ZM134.81,46.89a59,59,0,0,0,6.39,12.75,26.6,26.6,0,0,0,5.58,6l-8.72,30.75c-10.81-2.92-19.52-6.78-24.52-11.81-6.28-6.31-14.41-11.11-22.78-14.73-1.51-.58-2.91-1.29-4.42-1.87a146.21,146.21,0,0,1,24.4-13.1A200.35,200.35,0,0,1,134.81,46.89ZM39.63,117.52c0-27.36,27.77-51.45,69.73-65.48C73.33,67.47,50,92.49,50,120.91c0,15.79,7.21,30.52,19.87,43.15C50.9,151,39.63,134.94,39.63,117.52Zm13.83,1.87a46.42,46.42,0,0,1,3.49-17.66c1,.7,2.21,1.4,3.37,2.22,4.42,2.81,9.3,5.85,14.29,8.65,12.32,7,39.16,12.16,54.74,14.62L124,146.28l-16.39,6.2a221.91,221.91,0,0,0-29.05,12.39,58.87,58.87,0,0,1-4.88-4.33C60.78,148.5,53.46,134.35,53.46,119.39Zm24.17,49c12.32-4.21,23.94-7.6,34.17-10.17,11.39-2.81,20.8-4.79,27.31-5.85,2.44-.47,4.42-.7,5.93-.93,2.09-.35,2.09.12,2.09.58,0,0-14.06,6.9-20.57,14.38-7.67,8.89-7.55,20.11-7.55,20.11C105.29,182.76,89.48,176.45,77.63,168.38Zm47.76,18.24h-2.32l-.81-5.61.81-5.26h2.32l-.81,5.26Zm3.6,0h-2.32l-.81-5.61.81-5.26H129l-.81,5.26Zm10-3a4.29,4.29,0,0,1-1.16,3.39,6.3,6.3,0,0,1-7,0,4.86,4.86,0,0,1-1-3.51v-1.29h4v2.46c0,.59.23.94.7.94a.54.54,0,0,0,.58-.35c0-.23.12-.82.12-1.75v-2.57h-2.21v-2.34h2.21v-2.69a2.59,2.59,0,0,0-.12-1.05c-.12-.23-.23-.35-.46-.35-.46,0-.7.35-.7.94v1.87h-4V176a3.68,3.68,0,0,1,1-3,5.48,5.48,0,0,1,3.49-.82,5.18,5.18,0,0,1,3.49,1.05,3.57,3.57,0,0,1,1.16,2.92v7.48Zm7.09,4.33a2.16,2.16,0,0,1-.47-1.52V183.7c0-.94-.46-1.29-1.28-1.29V188H140.5V175h3.84v5a1.17,1.17,0,0,0,1.28-1.29v-2.22c0-.94.12-1.4.47-1.52h3.72a3,3,0,0,0-.46,1.87v1.75a1.71,1.71,0,0,1-.81,1.52c-.23.12-.58.35-1.16.7a4.11,4.11,0,0,1-1.28.35,4.2,4.2,0,0,1,1.28.35c1.39.47,2,1.17,2,2.22V186a3,3,0,0,0,.46,1.87Zm9.41-10.64c-.12-.23-.23-.23-.46-.23a.6.6,0,0,0-.47.23,2.33,2.33,0,0,0-.12,1.05v6.08c0,.47,0,.82.23,1.05s.23.35.46.35a.64.64,0,0,0,.58-.35,4.07,4.07,0,0,0,.12-1.4v-1.52h3.49a12.78,12.78,0,0,1-.12,2.34,3.34,3.34,0,0,1-.7,1.64,3.7,3.7,0,0,1-1.39,1.29,5.93,5.93,0,0,1-4.88-.12,2.76,2.76,0,0,1-1.4-1.64,9.51,9.51,0,0,1-.35-2.92v-3.62a6.88,6.88,0,0,1,.35-2.46,3.42,3.42,0,0,1,1.4-1.52,4.8,4.8,0,0,1,2.67-.7,5.08,5.08,0,0,1,2.67.7,3.14,3.14,0,0,1,1.39,1.64,9.2,9.2,0,0,1,.35,2.81h-3.72v-1.52C155.61,177.74,155.61,177.39,155.49,177.27Zm14.18,10.64h-4V177.62h-1.39v10.29h-3.84v-13h9.18Zm10.23-6.31h-5.11v2.81a3,3,0,0,0,.12,1.17.6.6,0,0,0,.46.23.54.54,0,0,0,.58-.35,3.67,3.67,0,0,0,.12-1.29v-1.75h3.72v.94a8.39,8.39,0,0,1-.12,1.87,4,4,0,0,1-.7,1.4,3.17,3.17,0,0,1-1.39,1.05,5.59,5.59,0,0,1-2.09.35,6.73,6.73,0,0,1-2.21-.35,4.78,4.78,0,0,1-1.51-.93,4,4,0,0,1-.7-1.4,10,10,0,0,1-.23-2.22v-3.74a5.88,5.88,0,0,1,.46-2.69,3.19,3.19,0,0,1,1.51-1.52,5.36,5.36,0,0,1,2.44-.47,6,6,0,0,1,2.67.58,4.05,4.05,0,0,1,1.51,1.64,9,9,0,0,1,.46,2.92Zm-.12-12.4a2.82,2.82,0,0,1-.7-1.75,24.66,24.66,0,0,1-.12-3.39v-2.69a24.66,24.66,0,0,1,.12-3.39,4,4,0,0,1,.7-1.75,3.66,3.66,0,0,1,1.63-1.29,4.88,4.88,0,0,1,2.32-.47,4.41,4.41,0,0,1,2.21.47,3.5,3.5,0,0,1,1.63,1.29,2.81,2.81,0,0,1,.7,1.75,24.66,24.66,0,0,1,.12,3.39v2.69a24.66,24.66,0,0,1-.12,3.39,4,4,0,0,1-.7,1.75,3.65,3.65,0,0,1-1.63,1.29,4.86,4.86,0,0,1-2.32.47,4.75,4.75,0,0,1-3.84-1.75Zm10.46,14.73a10.65,10.65,0,0,1-.23,2.46,2.14,2.14,0,0,1-.81,1.17,2.33,2.33,0,0,1-1.51.47,3.08,3.08,0,0,1-1.39-.35,3.29,3.29,0,0,1-1.16-1.05v2.92h-4V174.7h4l-.12,1.17a3.31,3.31,0,0,1,1.16-1.05,3.07,3.07,0,0,1,1.39-.35,2.66,2.66,0,0,1,1.63.47,2,2,0,0,1,.81,1.17,10.79,10.79,0,0,1,.12,2.22v5.61Zm-.35-16.49a24.87,24.87,0,0,1-.12-3.39v-2.69a24.87,24.87,0,0,1,.12-3.39,4,4,0,0,1,.7-1.75,3.65,3.65,0,0,1,1.63-1.29,4.88,4.88,0,0,1,2.32-.47,4.41,4.41,0,0,1,2.21.47,3.5,3.5,0,0,1,1.63,1.29,2.81,2.81,0,0,1,.7,1.75,24.87,24.87,0,0,1,.12,3.39v2.69a24.87,24.87,0,0,1-.12,3.39,4,4,0,0,1-.7,1.75,3.65,3.65,0,0,1-1.63,1.29,4.87,4.87,0,0,1-2.32.47,4.4,4.4,0,0,1-2.21-.47,3.48,3.48,0,0,1-1.63-1.29A5.55,5.55,0,0,1,189.89,167.45Zm9.41,10.17h-2.21v10.29h-4V177.62h-2.21v-2.69h8.37Zm10.34,10.29h-4.07V175.28h-1.16v12.63h-4.07V172h9.41v15.9Zm.47-24a24.87,24.87,0,0,1-.12,3.39,4,4,0,0,1-.7,1.75,3.65,3.65,0,0,1-1.63,1.29,4.87,4.87,0,0,1-2.32.47,4.4,4.4,0,0,1-2.21-.47,3.49,3.49,0,0,1-1.63-1.29,2.82,2.82,0,0,1-.7-1.75,24.87,24.87,0,0,1-.12-3.39v-2.69a24.87,24.87,0,0,1,.12-3.39,4,4,0,0,1,.7-1.75,3.65,3.65,0,0,1,1.63-1.29,4.87,4.87,0,0,1,2.32-.47,4.4,4.4,0,0,1,2.21.47,3.49,3.49,0,0,1,1.63,1.29,2.82,2.82,0,0,1,.7,1.75,24.87,24.87,0,0,1,.12,3.39Zm10,20a10.72,10.72,0,0,1-.23,2.46,2.14,2.14,0,0,1-.81,1.17,2.32,2.32,0,0,1-1.51.47,3.08,3.08,0,0,1-1.39-.35,3.3,3.3,0,0,1-1.16-1.05v2.92h-4V174.7h4l-.12,1.17a3.3,3.3,0,0,1,1.16-1.05,3.08,3.08,0,0,1,1.39-.35,2.65,2.65,0,0,1,1.63.47,2,2,0,0,1,.81,1.17,10.88,10.88,0,0,1,.12,2.22v5.61Zm10.23-1.29a7.66,7.66,0,0,1-.23,2.57,3.63,3.63,0,0,1-.7,1.52,3.53,3.53,0,0,1-1.51,1.05,5.59,5.59,0,0,1-2.09.35,11.63,11.63,0,0,1-2.21-.23,2.79,2.79,0,0,1-1.39-.82,2.67,2.67,0,0,1-.7-1.4,12.5,12.5,0,0,1-.23-2.46V180a9.2,9.2,0,0,1,.35-2.81,3.14,3.14,0,0,1,1.4-1.64,4.38,4.38,0,0,1,2.56-.58,5.82,5.82,0,0,1,2.21.35,3.58,3.58,0,0,1,2.21,2.34,8.77,8.77,0,0,1,.23,2.1v2.92Zm10.11-1.05h-5.11v2.81a3,3,0,0,0,.12,1.17.6.6,0,0,0,.46.23.54.54,0,0,0,.58-.35,3.67,3.67,0,0,0,.12-1.29v-1.75h3.72v.94a8.39,8.39,0,0,1-.12,1.87,4,4,0,0,1-.7,1.4,3.18,3.18,0,0,1-1.4,1.05A5.59,5.59,0,0,1,236,188a6.73,6.73,0,0,1-2.21-.35,4.76,4.76,0,0,1-1.51-.93,4,4,0,0,1-.7-1.4,10,10,0,0,1-.23-2.22v-3.74a5.87,5.87,0,0,1,.46-2.69,3.18,3.18,0,0,1,1.51-1.52,5.36,5.36,0,0,1,2.44-.47,6,6,0,0,1,2.67.58,4.05,4.05,0,0,1,1.51,1.64,9,9,0,0,1,.46,2.92Zm6.86,6.31a2.16,2.16,0,0,1-.46-1.52V183.7c0-.94-.46-1.29-1.28-1.29V188h-3.83V175h3.83v5a1.17,1.17,0,0,0,1.28-1.29v-2.22c0-.94.12-1.4.46-1.52H251a3,3,0,0,0-.46,1.87v1.75a1.71,1.71,0,0,1-.81,1.52c-.23.12-.58.35-1.16.7a4.1,4.1,0,0,1-1.28.35,4.2,4.2,0,0,1,1.28.35c1.4.47,2,1.17,2,2.22V186a3,3,0,0,0,.46,1.87Zm12.32-10.29h-2.21v10.29h-4V177.62h-2.21v-2.69h8.37Zm2.79,9h-2.32l.81-5.61-.81-5.26h2.32l.81,5.26Zm3.49,0h-2.32l.81-5.61-.81-5.26h2.32l.81,5.26Zm5.46-2.34s.12-11.23-7.55-20.11c-5.23-6.08-15.46-11.69-19.18-13.68a12.44,12.44,0,0,0-1.4-.7c0-.47,0-.93,2.09-.58,5.35.82,17.2,2.81,32.54,6.66,10.34,2.57,22.31,6,34.86,10.29C300.64,174.35,285,180.66,271.35,184.28Zm13.6-33-.23-.35-1.16-.23-4.18-1.05-1.74-.59-.7-2.92-5-24-1.28-5.85c5-.58,9.3-1.05,12.67-1.52,19.41-2.57,32.08-11.46,38.93-17.89a37,37,0,0,0,3-3,49.37,49.37,0,0,1,7.32,25.49c0,16.49-5,28.42-20,41.16h-.12C305.75,158.68,297.5,154.82,285,151.31Zm31.26,12.63c12.55-12.63,19.87-27.36,19.87-43.15,0-28.3-23.47-53.44-59.38-68.87,42,13.91,69.73,38,69.73,65.48C346.43,134.94,335.15,151,316.21,163.94Z"/><path class="cls-3" d="M107.5,152.48l16.39-6.2,5.35-19.06c-15.57-2.46-42.42-7.48-54.74-14.62-4.88-2.81-9.76-5.85-14.29-8.65-1.16-.7-2.32-1.52-3.37-2.22a48.74,48.74,0,0,0-3.49,17.66c0,15.08,7.32,29.12,20.1,41.16a58.89,58.89,0,0,0,4.88,4.33A223,223,0,0,1,107.5,152.48Z"/><path class="cls-3" d="M332.6,119.39a49.68,49.68,0,0,0-7.32-25.49,36.84,36.84,0,0,1-3,3,68.47,68.47,0,0,1-38.93,17.89c-3.37.47-7.67.94-12.67,1.52l1.28,5.85,5,24,.7,2.92,1.74.59,4.18,1.05,1.16.23.23.35c12.55,3.51,20.8,7.25,27.54,9.12h.12C327.6,147.8,332.6,135.88,332.6,119.39Z"/><path class="cls-4" d="M266.36,64l.81,1.05.46.58.46.58.12.7L269,71.8l.23,1.4-1,1.05-1.28,1.29h-4.77l2.67,13.21.23.94a29,29,0,0,0,5.35-4c8.25-8.3,18.71-11.81,29.17-12.75a56.29,56.29,0,0,1,6.28-.23,137.22,137.22,0,0,0-30.56-17.54q-3.84-1.58-8-3.16a84.35,84.35,0,0,0-7.09,4.79l1.39,7.37h4.77Z"/><path class="cls-4" d="M90.76,69.81c8.37,3.62,16.5,8.42,22.78,14.73,5,5,13.71,8.89,24.52,11.81l8.72-30.75a29.35,29.35,0,0,1-5.58-6,72,72,0,0,1-6.39-12.75A174.45,174.45,0,0,0,110.87,55a134.13,134.13,0,0,0-24.4,13.1A41.62,41.62,0,0,1,90.76,69.81Z"/><path class="cls-2" d="M365.6,122.78c-1.28-.12-2.09.7-2.32,2.69a2.07,2.07,0,0,1-.12.7l3.6.47c.12-.35.23-.7.35-1.17a2.51,2.51,0,0,0-.35-1.87C366.42,123.13,366.18,122.78,365.6,122.78Z"/><path class="cls-2" d="M313.19,182.53a2,2,0,0,0-1.16-.35,3.44,3.44,0,0,0-1.16.23,2.73,2.73,0,0,0-1.16,1.4,3,3,0,0,0,.12,2l4.07-2.34A1.53,1.53,0,0,0,313.19,182.53Z"/><path class="cls-2" d="M171.88,23a3.14,3.14,0,0,0-.93-.82,2.28,2.28,0,0,0-1.28-.23,2.22,2.22,0,0,0-1.63.82,2.48,2.48,0,0,0-.7,1.87l4.88-.35A1.7,1.7,0,0,0,171.88,23Z"/><path class="cls-2" d="M36.37,151a2.12,2.12,0,0,0,.23-1.17,2.11,2.11,0,0,0-1.86-2.1,3.11,3.11,0,0,0-2,.35l2.67,3.86A2.27,2.27,0,0,0,36.37,151Z"/><path class="cls-2" d="M304.59,189.43a1.75,1.75,0,0,0,0-1.52,1.21,1.21,0,0,0-1.16-.82,4.38,4.38,0,0,0-2.09.58l-.46.23,1.51,3.16c.35-.12.46-.23.58-.23A2.84,2.84,0,0,0,304.59,189.43Z"/><path class="cls-2" d="M305.52,190.83a4.84,4.84,0,0,0-2.32.58l-.7.35,1.63,3.27a8.78,8.78,0,0,0,1.28-.47,2.85,2.85,0,0,0,1.51-1.29,1.74,1.74,0,0,0,0-1.52A1.4,1.4,0,0,0,305.52,190.83Z"/><path class="cls-2" d="M340.73,161a2.33,2.33,0,0,0-2.09.7,2.26,2.26,0,0,0-.58,1.05,2.34,2.34,0,0,0,.12,1.52,5.12,5.12,0,0,0,1.16,1.75,7.28,7.28,0,0,0,3.14,1.87,2.48,2.48,0,0,0,3.37-2.46,4.14,4.14,0,0,0-1.51-2.46A5.4,5.4,0,0,0,340.73,161Z"/><path class="cls-2" d="M224.87,30.87a2.2,2.2,0,0,0,1.51.58,2.38,2.38,0,0,0,2-.58,4,4,0,0,0,1.28-2.81,5.1,5.1,0,0,0-.7-3.39,2,2,0,0,0-1.63-.94,4.33,4.33,0,0,0-1.16.12,4.7,4.7,0,0,0-1.51.94l-.35,3.51a9.16,9.16,0,0,0-.12,1.52A2.77,2.77,0,0,0,224.87,30.87Z"/><path class="cls-2" d="M179.43,28.41a2.16,2.16,0,0,0,.81,1.05,2.42,2.42,0,0,0,1.63.35,2.52,2.52,0,0,0,1.86-.82,4,4,0,0,0,.81-2.92,4.85,4.85,0,0,0-1.16-3.27,2.55,2.55,0,0,0-1.74-.7,3.38,3.38,0,0,0-1,.23,6.76,6.76,0,0,0-1.39,1.17l.12,3.51A4.07,4.07,0,0,0,179.43,28.41Z"/><path class="cls-2" d="M359.68,109.8a3.83,3.83,0,0,0,2.67.23,6.92,6.92,0,0,0,3.25-1.4,2.54,2.54,0,0,0,1-2.57c-.23-1.64-1.51-2.22-4-1.87a6.44,6.44,0,0,0-3.25,1.4,2.68,2.68,0,0,0-1,2.46A2.53,2.53,0,0,0,359.68,109.8Z"/><path class="cls-2" d="M238.23,33a2.42,2.42,0,0,0,2-.47,4.14,4.14,0,0,0,1.16-2.69,6.67,6.67,0,0,0-.58-4.09,2.63,2.63,0,0,0-2-1.29,2.5,2.5,0,0,0-1.28.12,2.2,2.2,0,0,0-1.16.94,4.44,4.44,0,0,0-.7,2A6.29,6.29,0,0,0,236,31.1,2.76,2.76,0,0,0,238.23,33Z"/><path class="cls-2" d="M23.24,113.07c2.32.35,4.07.23,5.46-.58a4.7,4.7,0,0,0,2-3,3.89,3.89,0,0,0-.81-3.39,7.08,7.08,0,0,0-4.65-2.34,7.84,7.84,0,0,0-5.35.7A4,4,0,0,0,18,107.34a4.31,4.31,0,0,0,.93,3.74C19.64,112,21,112.72,23.24,113.07Z"/><path class="cls-2" d="M266.24,201.94a1.7,1.7,0,0,0-1-.7,2,2,0,0,0-1.16,0,2.08,2.08,0,0,0-1.39,1.05,2.81,2.81,0,0,0-.35,2l4.53-1.29C266.59,202.53,266.36,202.18,266.24,201.94Z"/><path class="cls-2" d="M21.5,126.17a5.5,5.5,0,0,0,3.25-1.29,2.6,2.6,0,0,0,1-2.34,2.78,2.78,0,0,0-1-1.75,4.51,4.51,0,0,0-2.67-.35,6.06,6.06,0,0,0-3.49,1.4,2.78,2.78,0,0,0-.93,2.34,2.07,2.07,0,0,0,1,1.64A4,4,0,0,0,21.5,126.17Z"/><path class="cls-2" d="M252.3,28.3a2.1,2.1,0,0,0-.7-1.05,3.63,3.63,0,0,0-1.16-.58,2.81,2.81,0,0,0-3.14,2l4.88.94A1.73,1.73,0,0,0,252.3,28.3Z"/><path class="cls-2" d="M115,200a3.19,3.19,0,0,0-1-.12,4.8,4.8,0,0,0-1.63.7l-1,3.27a5.75,5.75,0,0,0-.35,1.4,1.68,1.68,0,0,0,.47,1.17,2.44,2.44,0,0,0,1.28.82,2.33,2.33,0,0,0,2-.23,3.94,3.94,0,0,0,1.74-2.57,4.26,4.26,0,0,0,0-3.39A1.91,1.91,0,0,0,115,200Z"/><path class="cls-2" d="M122.14,206.5a1.2,1.2,0,0,0-.58.94,1.62,1.62,0,0,0,.12,1.29,1.81,1.81,0,0,0,.93.7A4.2,4.2,0,0,0,125,209l.93-3.39a14.2,14.2,0,0,0-2.32.35A3.71,3.71,0,0,0,122.14,206.5Z"/><path class="cls-2" d="M66.47,176.8a2,2,0,0,0-1.16-.35,2.22,2.22,0,0,0-1.39.47,6,6,0,0,0-1.39,1.52,6.6,6.6,0,0,0-1.16,3.39,2.56,2.56,0,0,0,1.16,2.46,2.33,2.33,0,0,0,2,.23,4.11,4.11,0,0,0,2.09-2,5.92,5.92,0,0,0,1.16-3.86A3.41,3.41,0,0,0,66.47,176.8Z"/><path class="cls-2" d="M58.57,172.12a4.71,4.71,0,0,0-1.51-1.64l-.46-.35-2.09,2.81c.23.23.35.35.46.35a4,4,0,0,0,2.09.93,1.55,1.55,0,0,0,1.51-2.1Z"/><path class="cls-2" d="M54.74,173.88c-.23-.12-.35-.35-.58-.47l-2.21,2.92a7,7,0,0,0,.93.94,2.87,2.87,0,0,0,1.86.82,1.33,1.33,0,0,0,1.28-.7,1.65,1.65,0,0,0,.23-1.64A4.5,4.5,0,0,0,54.74,173.88Z"/><path class="cls-2" d="M172,210.95a1.82,1.82,0,0,0-.7-.94,3.47,3.47,0,0,0-1.16-.47,3.27,3.27,0,0,0-1.74.47,3.21,3.21,0,0,0-1,1.75l4.65.35A2,2,0,0,0,172,210.95Z"/><path class="cls-2" d="M256.25,206.62a1.62,1.62,0,0,0,.35-1.4,1.25,1.25,0,0,0-.93-1.05,4.93,4.93,0,0,0-2.21.12l-.58.12.81,3.39a1.54,1.54,0,0,1,.58-.12A4.4,4.4,0,0,0,256.25,206.62Z"/><path class="cls-2" d="M256.83,208.14a3.9,3.9,0,0,0-2.32,0,2.94,2.94,0,0,0-.81.23l.81,3.51a5.17,5.17,0,0,0,1.28-.12,3.11,3.11,0,0,0,1.74-.93,1.78,1.78,0,0,0,.35-1.52C257.87,208.72,257.53,208.37,256.83,208.14Z"/><path class="cls-2" d="M235.79,208.26a2.34,2.34,0,0,0-2.09-.7,2.45,2.45,0,0,0-1.16.47,2.72,2.72,0,0,0-.81,1.29,6.07,6.07,0,0,0-.12,2.1,8,8,0,0,0,1.4,3.39,2.59,2.59,0,0,0,2.56,1.17,2.26,2.26,0,0,0,1.63-1.05,4.41,4.41,0,0,0,.23-2.92A5.62,5.62,0,0,0,235.79,208.26Z"/><path class="cls-2" d="M325.28,44.43c-35.1-21.87-82-33.91-132.25-33.91s-97.15,12-132.25,33.91C28.24,64.78,10.34,90.86,10.34,118s17.9,53.2,50.44,73.55c35.1,21.87,82,33.91,132.25,33.91s97.15-12,132.25-33.91c32.54-20.35,50.44-46.42,50.44-73.55S357.82,64.66,325.28,44.43ZM283.91,35.2l2.67,6-5.81,3-.58-.23,4.3-3.51-1-5.5ZM279,33.44l2.79,6.08-5.93,3-.58-.23,4.18-3.62-1-5.5Zm-11.16-3.16,8.83,2.57-.23,2.57-.46-.12a4.42,4.42,0,0,0-.12-1.29,1.2,1.2,0,0,0-.58-.7c-.23-.12-.7-.35-1.28-.58l-.93-.23-1.86,6.2A3.61,3.61,0,0,0,271,40c0,.23.12.35.35.47a10,10,0,0,0,1.39.58l-.12.35-5.58-1.64.12-.35a2.36,2.36,0,0,0,1.51.12c.23-.12.46-.58.7-1.29l1.86-6.2-.93-.23a3.24,3.24,0,0,0-1.28-.23,3,3,0,0,0-.81.23,9.63,9.63,0,0,0-.93,1.05l-.46-.12Zm-12,5.85c.23-.12.46-.58.58-1.4l1.16-4.79c.12-.7.23-1.17.23-1.29a.63.63,0,0,0-.35-.47,4.81,4.81,0,0,0-1-.47l.12-.35,5.11,1.29-.12.35c-.58-.12-1-.23-1.16-.12a.88.88,0,0,0-.47.23,2.33,2.33,0,0,0-.46,1.29L259,32.16c.12,0,.23.12.35.12a2.81,2.81,0,0,0,1.39,0,2.49,2.49,0,0,0,1.39-1.17c.46-.58.81-1.05,1-1.29a1.31,1.31,0,0,1,.93-.35,3.87,3.87,0,0,1,1.16,0,2.33,2.33,0,0,1,.93.47.86.86,0,0,1,.23.7c0,.23-.23.35-.35.47a1.71,1.71,0,0,1-.81.12,1.94,1.94,0,0,1-.58-.23,3.8,3.8,0,0,0-.7-.35c-.35-.12-.7.12-1,.58s-.7.82-.81,1.05a2.49,2.49,0,0,1-.81.47,3.11,3.11,0,0,1,.7.58,14.51,14.51,0,0,1,1,2.46,9.49,9.49,0,0,0,.93,2.1,1.67,1.67,0,0,0,1.16.7l-.12.35-3-.7a32.83,32.83,0,0,1-1.63-4.33,5.71,5.71,0,0,0-.35-.82.64.64,0,0,0-.58-.35.88.88,0,0,1-.46-.12l-.58,2.46c-.12.7-.23,1.05-.23,1.29s.12.35.35.47a4.7,4.7,0,0,0,1.16.35l-.12.35-5.11-1.29.12-.35C255.2,36.37,255.67,36.37,255.9,36.13Zm-10.34-6.08a5.34,5.34,0,0,1,2.09-3.39,4.52,4.52,0,0,1,3.72-.58A4.23,4.23,0,0,1,254,27.71a3.57,3.57,0,0,1,.58,2.92l-7.2-1.52a4.63,4.63,0,0,0,.46,3.39,3.74,3.74,0,0,0,2.44,1.75,3.3,3.3,0,0,0,1.86-.12,3.64,3.64,0,0,0,1.63-1.4l.35.23a4.29,4.29,0,0,1-1.86,2.22,4.17,4.17,0,0,1-3.14.58,4.3,4.3,0,0,1-2.9-2A4.15,4.15,0,0,1,245.56,30.05Zm-12.2-2a4.75,4.75,0,0,1,1.16-2.46,4.22,4.22,0,0,1,2.21-1.52,6.35,6.35,0,0,1,2.56-.23,4.76,4.76,0,0,1,3.6,2.22,4.17,4.17,0,0,1,.7,3.27,4.72,4.72,0,0,1-1,2.34,4.42,4.42,0,0,1-2.21,1.64,5.45,5.45,0,0,1-2.79.23,4.65,4.65,0,0,1-3.49-2.22A5.42,5.42,0,0,1,233.35,28.06Zm-10.58-4.44c0-.12-.12-.35-.23-.35s-.35-.12-.58-.23a1.46,1.46,0,0,0-.7.12l-.12-.35,3.37-.82H225l-.23,2.1a5.33,5.33,0,0,1,1.86-1.52,3,3,0,0,1,1.74-.23,3.77,3.77,0,0,1,2.56,1.4,4.77,4.77,0,0,1,.93,3.62,5.4,5.4,0,0,1-2,3.74,4.79,4.79,0,0,1-3.37.94c-.58-.12-1-.23-1.51-.35a2.44,2.44,0,0,1-.93-.7l-.35,2.81a1.84,1.84,0,0,0,0,1.17c.12.12.23.35.46.47a2.49,2.49,0,0,0,1.16.23V36l-5.58-.58v-.35H220a3.56,3.56,0,0,0,1.16-.12q.18,0,.35-.35a2.75,2.75,0,0,0,.23-1.29l1-8.77Zm-19.06,6a5.39,5.39,0,0,0,1.86-.23c.23-.12.46-.82.46-1.75l.58-8.77c0-.94,0-1.52-.35-1.75a2.74,2.74,0,0,0-1.86-.47v-.35l16.27,1.05v.35a5.39,5.39,0,0,0-1.86.23c-.23.12-.46.82-.46,1.75l-.58,8.77c0,.94,0,1.52.35,1.75a2.74,2.74,0,0,0,1.86.47V31l-6.74-.47v-.35a5.38,5.38,0,0,0,1.86-.23,2.62,2.62,0,0,0,.46-1.75l.7-10.52-7.32-.47-.7,10.52c0,.94,0,1.52.35,1.75a2.74,2.74,0,0,0,1.86.47v.35l-6.74-.47Zm-16-8.89,9.18-.12.46,2.57h-.46A2.71,2.71,0,0,0,196.4,22a3.08,3.08,0,0,0-.7-.58,4.36,4.36,0,0,0-1.4-.12h-.93v6.43a3,3,0,0,0,.12,1.29c.12.23.23.35.47.35a4.4,4.4,0,0,0,1.51.12v.35h-5.81v-.35a2,2,0,0,0,1.4-.35,2.21,2.21,0,0,0,.35-1.52V21.16h-.93a4,4,0,0,0-1.39.12,2.43,2.43,0,0,0-.7.47A4.47,4.47,0,0,0,187.8,23h-.46Zm-9.06,0h.47l.12,2.22a4.78,4.78,0,0,1,1.63-1.75,3.44,3.44,0,0,1,1.74-.58,3.58,3.58,0,0,1,2.67.94,4.34,4.34,0,0,1,1.4,3.39,5.67,5.67,0,0,1-1.4,4.09A4,4,0,0,1,182,30.4a6.11,6.11,0,0,1-1.51-.12,2.38,2.38,0,0,1-1-.58l.12,2.81a2.18,2.18,0,0,0,.23,1.17c.12.12.23.35.46.35a2.9,2.9,0,0,0,1.16.12v.35l-5.58.23v-.35h.35a2.31,2.31,0,0,0,1-.23l.35-.35a3,3,0,0,0,.12-1.29l-.35-8.77c0-.58-.12-.94-.12-1.17s-.12-.23-.35-.35a.87.87,0,0,0-.58-.12c-.23,0-.46.12-.7.12l-.12-.35ZM167,22.8a4.9,4.9,0,0,1,3.37-1.64,4.39,4.39,0,0,1,3,.82,3.6,3.6,0,0,1,1.4,2.69l-7.32.58a4.46,4.46,0,0,0,1.39,3.16,3.55,3.55,0,0,0,2.79.94,2.84,2.84,0,0,0,1.74-.58,3.24,3.24,0,0,0,1.16-1.87l.35.12a4.47,4.47,0,0,1-1.28,2.69,4.3,4.3,0,0,1-2.79,1.4,4.35,4.35,0,0,1-3.37-1.05,5,5,0,0,1-1.63-3.39A4.7,4.7,0,0,1,167,22.8ZM163.86,22v.35a7.39,7.39,0,0,0-1,.23c-.12.12-.35.23-.35.35s-.12.58,0,1.29l.58,4.91c.12.7.23,1.17.23,1.29s.23.23.46.35a1.56,1.56,0,0,0,1,0v.35l-5.11.58v-.35a2.67,2.67,0,0,0,1.28-.47c.23-.23.23-.7.12-1.52l-.7-6.43-4.53.58.7,6.43c.12.7.23,1.17.23,1.29s.23.23.46.35a1.56,1.56,0,0,0,1,0v.35l-5.11.58v-.35c.7-.12,1.16-.23,1.28-.47a2.65,2.65,0,0,0,.12-1.52L154,25.26c-.12-.7-.23-1.17-.23-1.29a1.62,1.62,0,0,0-.47-.35,1.56,1.56,0,0,0-1,0v-.35Zm-20.34,3.86A4.71,4.71,0,0,1,146.89,24a4,4,0,0,1,2.67.35,2.27,2.27,0,0,1,1.28,1.29.86.86,0,0,1-.23.7.83.83,0,0,1-.7.35,1,1,0,0,1-1-.23,1.81,1.81,0,0,1-.35-.82,1.49,1.49,0,0,0-.58-.82,1.9,1.9,0,0,0-1.16-.12A2.27,2.27,0,0,0,145,25.73a3.65,3.65,0,0,0-.46,2.81A5.36,5.36,0,0,0,146,31.34a2.8,2.8,0,0,0,2.67.82,3,3,0,0,0,1.86-1.05,4.64,4.64,0,0,0,.93-1.87l.35.12a5.1,5.1,0,0,1-1.16,3,4,4,0,0,1-2.56,1.4,4.45,4.45,0,0,1-3.37-.82,4.69,4.69,0,0,1-1.86-3.39A3.9,3.9,0,0,1,143.52,25.84Zm-7.67.35.12.35a3.41,3.41,0,0,0-1.16.35l-.35.35c-.12.12-.12.58.12,1.4l.35,1.75h.35a4.27,4.27,0,0,0,1.28-.58,3.55,3.55,0,0,0,.81-1.64,4.59,4.59,0,0,1,.46-1.52,2.18,2.18,0,0,1,.7-.82,4.11,4.11,0,0,1,1-.47,1.09,1.09,0,0,1,1,.12.78.78,0,0,1,.46.58,1.48,1.48,0,0,1-.12.7.7.7,0,0,1-.7.35h-1.51c-.35.12-.58.35-.7.94a4.51,4.51,0,0,1-.35,1.29,2.69,2.69,0,0,1-.58.82,1.25,1.25,0,0,1,.81.35c.35.23.93.82,2,1.75a12.47,12.47,0,0,0,1.74,1.52,1.82,1.82,0,0,0,1.39.12l.12.35-3,.58c-1.16-1.05-2.32-2.1-3.37-3.16l-.58-.58a1.25,1.25,0,0,0-.7-.12.87.87,0,0,0-.46.12l.46,2.46a4.58,4.58,0,0,0,.35,1.29c.12.23.35.23.58.35a5.3,5.3,0,0,0,1.16-.12l.12.35-5.23,1.05-.12-.35a2.17,2.17,0,0,0,1.28-.58,3.09,3.09,0,0,0,0-1.52l-.93-4.79a3.52,3.52,0,0,0-.35-1.29.6.6,0,0,0-.46-.23,4,4,0,0,0-1,.12l-.12-.35Zm-20.57,0c.46.35.81.58,1,.47a1.06,1.06,0,0,0,.58-.35,9.28,9.28,0,0,1,3.14-1.4,9.07,9.07,0,0,1,4-.12,6.73,6.73,0,0,1,3.37,1.75,6.46,6.46,0,0,1,2.09,3.39,6.61,6.61,0,0,1-.93,5.5,7.8,7.8,0,0,1-5,3.39,7.28,7.28,0,0,1-6.86-1.52l.23-.23a6.82,6.82,0,0,0,5.93,1.17,4.58,4.58,0,0,0,2.56-1.4,5.07,5.07,0,0,0,1.39-2.57,8.91,8.91,0,0,0,0-3.51l-5.93,1.52-.23-.7,5.93-1.52a6.74,6.74,0,0,0-2.9-4,4.68,4.68,0,0,0-3.72-.47,5.68,5.68,0,0,0-2.9,1.87,4.23,4.23,0,0,0-1.16,3.27l-.47.12-.93-4.56Zm-2.44,5.5.7-.23-1.28,5.38,4.18,3.74-.7.23-5.81-3.16Zm-5,1.64.58-.23-1.28,5.38,4.18,3.74-.58.23-5.69-3.16ZM17.2,107.11a7.19,7.19,0,0,1,2.91-4.79,6.76,6.76,0,0,1,5.46-1.17,7.16,7.16,0,0,1,4.88,3.27,7.57,7.57,0,0,1,.93,5.26,7.21,7.21,0,0,1-2.91,4.68,6.75,6.75,0,0,1-5.35,1.29,7.28,7.28,0,0,1-5.93-8.54Zm-.46,16.72A4.3,4.3,0,0,1,18,120a7.63,7.63,0,0,1,4.18-1.75,14.05,14.05,0,0,1,3.83.12,7.76,7.76,0,0,1,2.79,1.05,3.5,3.5,0,0,1,1.39,1.52,9.92,9.92,0,0,1,.81,3.27,7.45,7.45,0,0,0,.35,2,1.17,1.17,0,0,0,.46.59v.47a2.62,2.62,0,0,1-1.51-.7,2.77,2.77,0,0,1-.7-1.05,9.69,9.69,0,0,1-.46-2.11,11.38,11.38,0,0,0-.46-2.22,4.74,4.74,0,0,0-1-1.17,4.4,4.4,0,0,0-2-.82,9.21,9.21,0,0,0-2.56-.12,4.45,4.45,0,0,1,3.49,3.86,4.14,4.14,0,0,1-1,3.63,4.33,4.33,0,0,1-3.14,1.75,5.12,5.12,0,0,1-3.6-.93A5,5,0,0,1,16.73,123.83ZM25.1,146c-.23.12-.23.35-.35.58a6,6,0,0,0,.23,1.05l-2.67,1.17-.12-.35A2.52,2.52,0,0,0,23.59,147a4.43,4.43,0,0,0-.46-2.81l-4.88-11.46.35-.12c.23.58.46.93.81,1.05a2.11,2.11,0,0,0,1.51-.35l4.53-2a3.25,3.25,0,0,0,1.16-.58c.12-.12.12-.23.23-.47a2.14,2.14,0,0,0-.23-1.05l.35-.12,1.86,4.56-.35.12A3.77,3.77,0,0,0,28,133a.88.88,0,0,0-.46-.23,7.17,7.17,0,0,0-1.28.35l-4.65,2c-.58.23-.93.47-.93.58s0,.58.35,1.29L21.5,138a3.77,3.77,0,0,0,.46.82.43.43,0,0,0,.35.12,7.48,7.48,0,0,0,1.16-.35l4.53-2a3.27,3.27,0,0,0,1.16-.58c.12-.12.12-.35.23-.47a6,6,0,0,0-.23-1.05l.35-.12,1.86,4.33-.35.12a1.8,1.8,0,0,0-.46-.7c-.23-.12-.35-.23-.58-.23a3.77,3.77,0,0,0-1.16.35l-4.76,2.1a2.48,2.48,0,0,0-.93.59,2.24,2.24,0,0,0,.35,1.17l.46,1.17c.23.7.46.94.7.94a5,5,0,0,0,1.16-.35l4.53-2a3.24,3.24,0,0,0,1.16-.59c.12-.12.12-.23.23-.47a2.15,2.15,0,0,0-.23-1.05l.35-.12,1.86,4.56-.35.12a3.77,3.77,0,0,0-.46-.82.88.88,0,0,0-.46-.23,7.17,7.17,0,0,0-1.28.35l-4.07,1.75A9.69,9.69,0,0,0,25.1,146Zm5.81,8a2.72,2.72,0,0,0,1.39,1.17,3.18,3.18,0,0,0,2.09,0v.35a5.42,5.42,0,0,1-2.79.35,4.09,4.09,0,0,1-2.56-1.64,4.17,4.17,0,0,1-.7-3.27,4.87,4.87,0,0,1,2.09-3,4.87,4.87,0,0,1,3.84-1.05,4.82,4.82,0,0,1,3,2,3.92,3.92,0,0,1,.81,2.92,3.26,3.26,0,0,1-1.63,2.46l-4-5.73a4.12,4.12,0,0,0-2,2.81A2.53,2.53,0,0,0,30.91,154Zm7.79,10.52a4.15,4.15,0,0,1-2.56-1.29,3.77,3.77,0,0,1-1-3.16,5.36,5.36,0,0,1,1.74-3.39,4.76,4.76,0,0,1,3.6-1.29A4.43,4.43,0,0,1,43.7,157a4.07,4.07,0,0,1,1.16,2.34,2,2,0,0,1-.46,1.75,1.24,1.24,0,0,1-.7.23A.83.83,0,0,1,43,161c-.35-.35-.46-.7-.35-.94a.85.85,0,0,1,.46-.7,1.56,1.56,0,0,0,.35-.94,2.11,2.11,0,0,0-.46-1.05,2.08,2.08,0,0,0-1.74-.82,3.8,3.8,0,0,0-2.56,1.05,5,5,0,0,0-1.63,2.69,2.86,2.86,0,0,0,.7,2.69,3.28,3.28,0,0,0,1.86,1.05,4.87,4.87,0,0,0,2.09-.23H42A4.3,4.3,0,0,1,38.7,164.52Zm7.55,8.18L42.18,169l.23-.23c.58.47.93.7,1.16.7s.7-.35,1.28-.93l4.3-4.79-.7-.58a4.22,4.22,0,0,0-1-.82,1.71,1.71,0,0,0-.81-.12,2.9,2.9,0,0,0-1.28.59l-.35-.35,2-1.64,6.51,6L52.06,169l-.35-.35a3,3,0,0,0,.46-1.17,2.59,2.59,0,0,0-.12-.93,5.91,5.91,0,0,0-.93-1.05l-.7-.58-4.3,4.79a4.25,4.25,0,0,0-.81,1.05,1.06,1.06,0,0,0,.12.58,5.88,5.88,0,0,0,.93,1.05Zm11.39,6a2,2,0,0,1-2.09.82A5.82,5.82,0,0,1,52.64,178l-4-3,.23-.35c.46.35.93.59,1.16.47a4.21,4.21,0,0,0,1-1.05l3-4a3.54,3.54,0,0,0,.7-1.05.7.7,0,0,0-.12-.47,3.84,3.84,0,0,0-.7-.7l.23-.35L58,170.25a10.68,10.68,0,0,1,1.63,1.52,2.43,2.43,0,0,1,.58,1.4,2,2,0,0,1-.46,1.4c-.58.82-1.63.93-2.91.35C58.22,176.45,58.45,177.62,57.64,178.67Zm11,4.44a5.39,5.39,0,0,1-1.86,1.75,4,4,0,0,1-2.56.58,4.83,4.83,0,0,1-4.53-4.21,4.64,4.64,0,0,1,.81-3.27,5.8,5.8,0,0,1,2-1.75,4.12,4.12,0,0,1,2.56-.59,5.55,5.55,0,0,1,2.32.82,4.79,4.79,0,0,1,2.21,3.39A7.65,7.65,0,0,1,68.68,183.12Zm15.11,5.38a1.16,1.16,0,0,1-.58.47,2.25,2.25,0,0,1-.81-.12,1.57,1.57,0,0,1-.7-.82,2.29,2.29,0,0,1,.12-.82,1.63,1.63,0,0,0,0-1.05,1.84,1.84,0,0,0-.81-.82,2.34,2.34,0,0,0-2-.12,3.83,3.83,0,0,0-2,1.87,5.5,5.5,0,0,0-.58,3A2.83,2.83,0,0,0,78,192.35a2.6,2.6,0,0,0,2.09.23,6.83,6.83,0,0,0,1.86-.94l.23.23a5.34,5.34,0,0,1-2.67,1.75,3.76,3.76,0,0,1-2.79-.35,4.2,4.2,0,0,1-2.09-2.57,4.81,4.81,0,0,1,.46-3.74A5.22,5.22,0,0,1,78,184.4a4.81,4.81,0,0,1,3.6.35,3.91,3.91,0,0,1,1.86,1.75C83.9,187.44,84,188,83.79,188.49Zm13.36,11.34a4.61,4.61,0,0,1-2.44,1.05,4.87,4.87,0,0,1-2.56-.35,4.2,4.2,0,0,1-2.67-2.92,4.85,4.85,0,0,1,.12-3.39,4.7,4.7,0,0,1,1.63-2.1,4.61,4.61,0,0,1,2.44-1.05,4.46,4.46,0,0,1,2.44.35,4.63,4.63,0,0,1,2.79,2.92,4.87,4.87,0,0,1-.12,3.39A7.26,7.26,0,0,1,97.15,199.84Zm5.11,3.86a2.22,2.22,0,0,0,.93.47l-.12.35-4.76-1.75.12-.35a4.06,4.06,0,0,0,1.39.23c.23-.12.46-.59.81-1.29l1.63-4.68a4.29,4.29,0,0,0,.35-1.29.61.61,0,0,0-.23-.47,2.17,2.17,0,0,0-1-.47l.12-.35,7.9,2.81-.47,2.57-.46-.12a4.66,4.66,0,0,0-.23-1.75,4.5,4.5,0,0,0-1.63-.94l-2-.7-2.21,6.08a5.36,5.36,0,0,0-.35,1.29C102,203.58,102.15,203.46,102.27,203.7Zm16.39.59a5.48,5.48,0,0,1-2.56,3.39,4.59,4.59,0,0,1-4.65-.23l-.81-.82-.81,2.69a3.14,3.14,0,0,0-.23,1.17.63.63,0,0,0,.35.47,2.16,2.16,0,0,0,1,.47l-.12.35-5.11-1.52.12-.35.23.12a3.2,3.2,0,0,0,1,.12.88.88,0,0,0,.46-.23,7.56,7.56,0,0,0,.47-1.17l2.56-8.42a2.82,2.82,0,0,0,.23-1.17c0-.12-.12-.35-.12-.47a.6.6,0,0,0-.46-.23,4.11,4.11,0,0,0-.7-.12V198l3.37-.23.35.12-.58,2.11a5.13,5.13,0,0,1,2-1.17,4.37,4.37,0,0,1,1.74,0,3.91,3.91,0,0,1,2.09,1.75A5.85,5.85,0,0,1,118.65,204.28Zm9.65,6.31a3.53,3.53,0,0,1-2.67.93c-.35-.12-.58-.23-.7-.58a2,2,0,0,1,0-1.17,9.71,9.71,0,0,1-2.21.7,2.4,2.4,0,0,1-1.28-.12,3,3,0,0,1-1.51-1.05,2.49,2.49,0,0,1-.23-1.87,2.26,2.26,0,0,1,.58-1.05,3.93,3.93,0,0,1,1.86-.82,21.29,21.29,0,0,1,4-.47l.12-.35a2.84,2.84,0,0,0,0-2,1.5,1.5,0,0,0-1.28-.82,2,2,0,0,0-1.16,0,.74.74,0,0,0-.58.7l-.12.58a.82.82,0,0,1-.46.58,1.46,1.46,0,0,1-.7.12,1.16,1.16,0,0,1-.58-.47,1.73,1.73,0,0,1-.12-.82,1.76,1.76,0,0,1,1.4-1.29,3.8,3.8,0,0,1,2.79,0,8.68,8.68,0,0,1,2.09.94,2.43,2.43,0,0,1,.7,1.17,6,6,0,0,1-.23,1.75l-.81,3a8.22,8.22,0,0,0-.35,1.64c0,.23,0,.35.12.47s.12.12.23.12h.35c.12,0,.46-.23,1-.47Zm12.2-4.91c-.23,0-.35.12-.47.35a3.43,3.43,0,0,0-.35,1.17l-1,4.79c-.12.59-.23.94-.12,1.17s.12.35.35.58a3.48,3.48,0,0,0,1,.35l-.12.35L135,213.4l.12-.35a2.3,2.3,0,0,0,1.28,0c.23-.12.46-.59.58-1.4l.46-2.22-4.3-.94-.46,2.22c-.12.59-.23.93-.12,1.17s.12.35.35.58a3.49,3.49,0,0,0,1,.35l-.12.35-4.76-1.05.12-.35c.7.12,1,.12,1.28-.12a2.25,2.25,0,0,0,.58-1.4l1-4.79c.12-.59.23-.94.12-1.17a1.58,1.58,0,0,0-.35-.59c-.23-.23-.46-.23-1-.35L131,203l4.76,1.05-.12.35a4,4,0,0,0-1-.12c-.23,0-.35.12-.46.35a4.76,4.76,0,0,0-.35,1.17l-.35,1.87,4.3.93.35-1.87c.12-.58.23-.93.12-1.17s-.12-.35-.23-.58a1.51,1.51,0,0,0-1-.35l.12-.35,4.76,1.05-.12.35A1.87,1.87,0,0,0,140.5,205.68Zm13,2a1.56,1.56,0,0,0-1,0c-.23.12-.35.12-.46.23a3.51,3.51,0,0,0-.35,1.29l-.81,4.91a7.79,7.79,0,0,0-.12,1.29c0,.12.12.23.35.47a2.53,2.53,0,0,0,1,.35l-.12.35-4.88-.82.12-.35c.58.12,1,.12,1.28-.12a2.25,2.25,0,0,0,.58-1.4l.7-4.33-5.11,3.86a1.71,1.71,0,0,0,.12,1.17c.12.23.46.35.93.47l-.12.35-4.65-.82.12-.35c.7.12,1,.12,1.28-.12a2.76,2.76,0,0,0,.46-1.4l.81-4.91a7.8,7.8,0,0,0,.12-1.29,4.68,4.68,0,0,0-.35-.47c-.23-.23-.46-.23-1-.35l.12-.35,4.88.82-.12.35a1.56,1.56,0,0,0-1,0c-.23.12-.35.12-.47.23a3.54,3.54,0,0,0-.35,1.29l-.7,4.21,5.11-3.86a1.82,1.82,0,0,0-.12-1.17c-.12-.23-.46-.35-.93-.47l.12-.35,4.65.82Zm11.27,1.4a3.05,3.05,0,0,0-1,0c-.23.12-.35.12-.46.23a3.53,3.53,0,0,0-.35,1.29l-.58,4.91a2.32,2.32,0,0,0,0,1.29c0,.23.12.35.35.47a2.18,2.18,0,0,0,.93.23v.35l-5.11-.58v-.35c.58,0,.93.12,1.16,0s.35-.12.46-.35a4.53,4.53,0,0,0,.35-1.29l.23-2.22a8.89,8.89,0,0,1-3.49.35,3.87,3.87,0,0,1-1.51-.47c-.35-.23-.58-.35-.58-.59a1.29,1.29,0,0,1,0-.94l.23-1.64a1.84,1.84,0,0,0,0-1.17c0-.23-.12-.35-.35-.47a1.79,1.79,0,0,0-.93-.23v-.35l4.76.58v.35a3.05,3.05,0,0,0-1,0c-.23.12-.35.12-.47.23A3.52,3.52,0,0,0,157,210l-.12,1.17v.93c0,.12.23.35.46.47a2.31,2.31,0,0,0,1,.23,3.92,3.92,0,0,0,2.32-.35l.23-2a2.32,2.32,0,0,0,0-1.29c-.12-.23-.12-.35-.35-.47a2.18,2.18,0,0,0-.93-.23v-.35l4.88.58Zm3.49,6.66a3.78,3.78,0,0,0,2.44,1.4,3.86,3.86,0,0,0,1.74-.35,5,5,0,0,0,1.39-1.64l.35.23a4.6,4.6,0,0,1-1.51,2.46,3.67,3.67,0,0,1-2.91.93,4.46,4.46,0,0,1-3-1.52,4.68,4.68,0,0,1-1-3.62,5.07,5.07,0,0,1,1.63-3.62,4.48,4.48,0,0,1,3.49-1.05,3.68,3.68,0,0,1,2.67,1.29,3.29,3.29,0,0,1,.81,2.81l-7-.59A5,5,0,0,0,168.27,215.74Zm18.59-5.38a2.56,2.56,0,0,0-1,.12,1.61,1.61,0,0,0-.46.35,3.32,3.32,0,0,0-.12,1.29L185,217v1.17c0,.23.23.35.35.47a2.31,2.31,0,0,0,1,.23v.35l-4.88-.23v-.35a3.1,3.1,0,0,0,1.28-.23,2.2,2.2,0,0,0,.35-1.52l.12-2.34-4.42-.23-.12,2.34v1.17c0,.23.23.35.35.47a2.31,2.31,0,0,0,1,.23v.35l-4.88-.23v-.35a2.7,2.7,0,0,0,1.28-.23,2.2,2.2,0,0,0,.35-1.52l.23-4.91v-1.17c0-.23-.23-.35-.35-.47a2,2,0,0,0-1-.23v-.35l4.88.23V210a2.56,2.56,0,0,0-1,.12,1.6,1.6,0,0,0-.46.35,3.32,3.32,0,0,0-.12,1.29l-.12,2,4.42.23.12-2v-1.17c0-.23-.12-.35-.35-.47a2.31,2.31,0,0,0-1-.23v-.35l4.88.23Zm7.32,9V219a1.86,1.86,0,0,0,1.28-.35,2.21,2.21,0,0,0,.35-1.52V214.8H191.4v2.34a3,3,0,0,0,.12,1.17.92.92,0,0,0,.47.47,2.56,2.56,0,0,0,1,.12v.35h-4.88v-.35a1.67,1.67,0,0,0,1.28-.35c.23-.23.23-.7.23-1.52v-4.91a3,3,0,0,0-.12-1.17.91.91,0,0,0-.47-.47,2.56,2.56,0,0,0-1-.12V210h4.88v.35a2.56,2.56,0,0,0-1,.12.91.91,0,0,0-.46.47,3.31,3.31,0,0,0-.12,1.29v2h4.42v-2a3,3,0,0,0-.12-1.17,1.61,1.61,0,0,0-.35-.47,2.31,2.31,0,0,0-1-.23V210h4.88v.35a2.56,2.56,0,0,0-1,.12.92.92,0,0,0-.47.47,3.31,3.31,0,0,0-.12,1.29v4.91a3,3,0,0,0,.12,1.17c0,.23.23.35.47.47a2.56,2.56,0,0,0,1,.12v.35Zm15.34-2.69a4.11,4.11,0,0,1-1.74,2,4.66,4.66,0,0,1-2.56.7,4.37,4.37,0,0,1-3.72-1.52,5.4,5.4,0,0,1-1.28-3.16,5.19,5.19,0,0,1,.58-2.57,5.82,5.82,0,0,1,1.74-2,4.18,4.18,0,0,1,2.32-.7,4.64,4.64,0,0,1,3.72,1.4,4.47,4.47,0,0,1,1.28,3A3.91,3.91,0,0,1,209.53,216.67Zm8.6,1.64V218a1.36,1.36,0,0,0,1.16-.47c.23-.23.23-.7.23-1.52l-.35-4.33-4,5a4.77,4.77,0,0,0,.35,1.17c.23.23.58.23,1,.23v.35l-4.65.35v-.35a1.64,1.64,0,0,0,1.28-.47,2.65,2.65,0,0,0,.12-1.52l-.35-4.91a4.94,4.94,0,0,0-.23-1.29l-.35-.35a2.28,2.28,0,0,0-1-.12v-.35l4.88-.35v.35a1.49,1.49,0,0,0-.93.23L215,210c-.12.12-.12.58,0,1.29l.35,4.21,4-5a1.48,1.48,0,0,0-.47-1.05c-.23-.23-.58-.23-1-.23v-.35l4.65-.35v.35a1.49,1.49,0,0,0-.93.23l-.35.35c-.12.12-.12.58,0,1.29l.35,4.91a4.91,4.91,0,0,0,.23,1.29,1.62,1.62,0,0,0,.46.35,2.56,2.56,0,0,0,1,.12v.35Zm-5.35-12.63a.64.64,0,0,1,.7-.82c.46,0,.93.35,1.4,1.17a1.39,1.39,0,0,0,.81.82,2.26,2.26,0,0,0,.81.12,1.42,1.42,0,0,0,1-.35,2.26,2.26,0,0,0,.58-1.05,1.54,1.54,0,0,1,1-1.17.87.87,0,0,1,.58.12.88.88,0,0,1,.23.47,1.77,1.77,0,0,1-1,1.52,4.68,4.68,0,0,1-2.44.82,5.08,5.08,0,0,1-2.79-.35A1.49,1.49,0,0,1,212.78,205.68Zm26.38,7.72a5,5,0,0,1-1.51,2.22,4.61,4.61,0,0,1-2.44,1.05,4.18,4.18,0,0,1-3.83-1.17,5.29,5.29,0,0,1-1.63-2.92,5,5,0,0,1,.35-2.57,4.11,4.11,0,0,1,1.51-2.1,5.15,5.15,0,0,1,2.32-.94,4.45,4.45,0,0,1,3.84,1.05,4.94,4.94,0,0,1,1.63,2.92A6.25,6.25,0,0,1,239.16,213.4Zm9.65-6.31a2.38,2.38,0,0,0-.7-1.05,1.86,1.86,0,0,0-.81-.47,7.89,7.89,0,0,0-1.39.12l-.81.12,1.16,6.31a4.51,4.51,0,0,0,.35,1.29.88.88,0,0,0,.46.23,8.65,8.65,0,0,0,1.39-.12l.12.35-5.46,1.05-.12-.35c.7-.12,1.16-.35,1.28-.58a3.07,3.07,0,0,0,0-1.52l-1.16-6.31-.93.12a6.11,6.11,0,0,0-1.28.35c-.23.12-.35.35-.58.59a9.58,9.58,0,0,0-.35,1.29l-.46.12V206l8.6-1.64.93,2.34Zm10.57,4a6.07,6.07,0,0,1-3,1.29l-4.88,1.05-.12-.35a1.78,1.78,0,0,0,1.16-.59,2.38,2.38,0,0,0-.12-1.52l-1-4.79a12.93,12.93,0,0,0-.35-1.29.6.6,0,0,0-.46-.23c-.23-.12-.58,0-1,.12l-.12-.35,4.53-1.05a9.33,9.33,0,0,1,2.21-.35,2.33,2.33,0,0,1,1.51.47,1.92,1.92,0,0,1,.81,1.29c.23,1.05-.35,1.87-1.63,2.46,1.86-.12,2.91.47,3.25,1.75A2.1,2.1,0,0,1,259.38,211.06Zm9.76-2.81a3.71,3.71,0,0,1-2.44,1.87,4.27,4.27,0,0,1-3.37-.47,5.11,5.11,0,0,1-2.21-3,4.74,4.74,0,0,1,3.25-6.2,3.54,3.54,0,0,1,2.9.23A3.63,3.63,0,0,1,269,203l-6.74,1.87a4.19,4.19,0,0,0,1.86,2.81,3.45,3.45,0,0,0,2.79.47,2.58,2.58,0,0,0,1.51-.93,4.44,4.44,0,0,0,.7-2l.35.12A3.67,3.67,0,0,1,269.15,208.26Zm4.76-.58-.12-.35c.7-.23,1-.47,1.16-.7a2.4,2.4,0,0,0-.12-1.52l-2-6.2-.81.23a7.42,7.42,0,0,0-1.16.47,1.8,1.8,0,0,0-.46.7,4.85,4.85,0,0,0-.12,1.4l-.46.12-.35-2.57,8.37-2.69,1.16,2.22-.46.12c-.23-.47-.46-.82-.81-.94a1.25,1.25,0,0,0-.81-.35,10.22,10.22,0,0,0-1.28.23l-.81.23,2,6.2c.23.7.35,1.05.58,1.17a.88.88,0,0,0,.58.23,5.67,5.67,0,0,0,1.39-.35l.12.35Zm14.76-5.85a4,4,0,0,1-2.09,1.87,4,4,0,0,1-3.25-.23,4.75,4.75,0,0,1-2.44-2.92,4.91,4.91,0,0,1,.12-3.86,5,5,0,0,1,2.67-2.46,3.87,3.87,0,0,1,2.56-.12q1.22.35,1.39,1.05a.75.75,0,0,1,0,.7,1.16,1.16,0,0,1-.58.47,1.56,1.56,0,0,1-1,0,1.79,1.79,0,0,1-.46-.7,2,2,0,0,0-.7-.7,1.4,1.4,0,0,0-1.16.12,2.2,2.2,0,0,0-1.39,1.29,3.41,3.41,0,0,0,.12,2.81,5,5,0,0,0,1.86,2.46,2.75,2.75,0,0,0,2.67.35,3.5,3.5,0,0,0,1.63-1.29,5.81,5.81,0,0,0,.58-2h.35A6.32,6.32,0,0,1,288.67,201.82Zm5-1.17-.12-.35a2,2,0,0,0,1.16-.82c.12-.23,0-.7-.35-1.52l-2.56-6-.81.35a10.25,10.25,0,0,0-1.16.58,1.07,1.07,0,0,0-.46.7,2.81,2.81,0,0,0,0,1.4l-.46.23-.58-2.46,8-3.39,1.39,2.1-.46.23a3.31,3.31,0,0,0-.81-.94,1.1,1.1,0,0,0-.81-.23,2.81,2.81,0,0,0-1.28.47l-.81.35,2.56,6a5.09,5.09,0,0,0,.58,1.17.51.51,0,0,0,.58.12,3.63,3.63,0,0,0,1.39-.47l.12.35Zm15-7.6a6.39,6.39,0,0,1-2.67,2l-4.53,2.22-.12-.35c.58-.23.93-.58.93-.82a3.69,3.69,0,0,0-.46-1.4l-2.21-4.44q-.52-1.05-.7-1.05c-.12-.12-.23-.12-.46-.12a1.85,1.85,0,0,0-.93.35l-.12-.35,4.18-2.1a12.49,12.49,0,0,1,2.09-.82,2.19,2.19,0,0,1,1.51.12,1.85,1.85,0,0,1,1,1.05q.7,1.4-1,2.81c1.86-.47,3-.23,3.49.93A1.45,1.45,0,0,1,308.66,193.05Zm8.95-5.26a3.44,3.44,0,0,1-1.86,2.34,4.82,4.82,0,0,1-3.37.47,5.29,5.29,0,0,1-2.9-2.46,4.83,4.83,0,0,1-.7-3.86,4.75,4.75,0,0,1,2.21-2.81,3.72,3.72,0,0,1,2.9-.47,3.62,3.62,0,0,1,2.32,1.87l-6,3.51a4.91,4.91,0,0,0,2.56,2.34,3.28,3.28,0,0,0,2.79-.23,2.74,2.74,0,0,0,1.28-1.29,4.07,4.07,0,0,0,.23-2.1h.35A3.52,3.52,0,0,1,317.61,187.79Zm8.25-4.21-.23-.35c.46-.35.81-.7.81-.93a2.51,2.51,0,0,0-.58-1.4L324.58,179l-3.6,2.46,1.28,1.87c.35.47.58.82.7.93a.51.51,0,0,0,.58.12,1.39,1.39,0,0,0,.93-.47l.23.35L320.63,187l-.23-.35c.58-.35.81-.7.81-.93a2.85,2.85,0,0,0-.58-1.4L318,180.19c-.35-.47-.58-.82-.7-.94a.51.51,0,0,0-.58-.12,1.38,1.38,0,0,0-.93.47l-.23-.35,4.07-2.69.23.35a2,2,0,0,0-.7.7,1.05,1.05,0,0,0-.12.58,2.41,2.41,0,0,0,.58,1.05l1,1.64,3.6-2.46-1-1.64c-.35-.47-.58-.82-.7-.94a.51.51,0,0,0-.58-.12,1.88,1.88,0,0,0-1,.47l-.23-.35,4.07-2.69.23.35a2,2,0,0,0-.7.7,1.06,1.06,0,0,0-.12.59,2.4,2.4,0,0,0,.58,1.05l2.67,4.09c.35.47.58.82.7.94a.51.51,0,0,0,.58.12,1.39,1.39,0,0,0,.93-.47l.23.35Zm10.46-7.72-.23-.35a2.16,2.16,0,0,0,.81-1.05,3.62,3.62,0,0,0-.7-1.4l-1.39-1.75-3.37,2.81,1.4,1.75a2.6,2.6,0,0,0,.81.82.87.87,0,0,0,.58.12,2.28,2.28,0,0,0,.93-.47l.23.35-3.83,3-.23-.35c.46-.47.81-.82.81-1.05a2.78,2.78,0,0,0-.7-1.29l-3.14-3.86a2.6,2.6,0,0,0-.81-.82.87.87,0,0,0-.58-.12,1.69,1.69,0,0,0-.93.58l-.23-.35,3.84-3,.23.35a3.82,3.82,0,0,0-.7.7,1.06,1.06,0,0,0-.12.59q0,.35.7,1.05l1.28,1.52,3.37-2.81-1.28-1.52a2.59,2.59,0,0,0-.81-.82.87.87,0,0,0-.58-.12,1.69,1.69,0,0,0-.93.58l-.23-.35,3.83-3,.23.35a3.81,3.81,0,0,0-.7.7,1.05,1.05,0,0,0-.12.58q0,.35.7,1.05l3.14,3.86a2.6,2.6,0,0,0,.81.82.86.86,0,0,0,.58.12,2.29,2.29,0,0,0,.93-.47l.23.35Zm10.34-10.06a5.18,5.18,0,0,1-5.11,3.63,4.87,4.87,0,0,1-3-1.4,5.07,5.07,0,0,1-1.28-2.34,4.81,4.81,0,0,1,0-2.57,4.89,4.89,0,0,1,1.28-2.1,4.66,4.66,0,0,1,3.72-1.52,4.87,4.87,0,0,1,3,1.4,4.68,4.68,0,0,1,1.28,2.22A5.3,5.3,0,0,1,346.66,165.81ZM344.57,149c-.35-.7-.46-1.17-.12-1.52.12-.23.35-.23.46-.35a1,1,0,0,1,.58.12A1.72,1.72,0,0,1,346,149a5.64,5.64,0,0,1-1,2.46,4.65,4.65,0,0,1-2.09,1.75,1.8,1.8,0,0,1-1.74-.23.63.63,0,0,1-.35-.47,1.06,1.06,0,0,1,.12-.59,1.69,1.69,0,0,1,1.74-.23,1.93,1.93,0,0,0,1.16,0,1.41,1.41,0,0,0,.58-.58,2.11,2.11,0,0,0,.46-1.05A1.27,1.27,0,0,0,344.57,149Zm9.53,8.54-.35-.23c.35-.47.58-.93.46-1.17s-.35-.7-1-1.17l-3.49-2.69,1,6.31a1.88,1.88,0,0,0,1,.47,1.69,1.69,0,0,0,.93-.58l.35.23-2.79,3.74-.35-.23c.35-.47.58-.93.46-1.17a2.81,2.81,0,0,0-1-1.17l-4-3a3.52,3.52,0,0,0-1-.7.69.69,0,0,0-.46.12,2,2,0,0,0-.7.7l-.23-.12,3-3.86.35.23a1.41,1.41,0,0,0-.46.94v.47c0,.12.35.47.93.93l3.37,2.57-1-6.32q-.7-.52-1-.35a1.69,1.69,0,0,0-.93.58l-.35-.23,2.9-3.74.35.23a1.4,1.4,0,0,0-.46.94v.47c0,.12.35.47.93.93l4,3a3.51,3.51,0,0,0,1,.7.7.7,0,0,0,.47-.12,2,2,0,0,0,.7-.7l.35.23Zm13.71-32.27-.58,4.79h-.35a2,2,0,0,0-.12-1.29c-.12-.23-.7-.35-1.39-.47l-5-.7c-.7-.12-1.16-.12-1.28,0s-.23.12-.35.35a2.57,2.57,0,0,0-.35,1.05H358l.7-5.26h.35a8,8,0,0,0-.12,1.4.61.61,0,0,0,.23.47,3.47,3.47,0,0,0,1.28.35l2,.23.12-1.29c.35-3,1.39-4.33,3.14-4.21a2.15,2.15,0,0,1,1.74,1.4A5.29,5.29,0,0,1,367.81,125.23Zm-9.18-21a5,5,0,0,1,3-1.87,7.12,7.12,0,0,1,2.67.23,5,5,0,0,1,2.21,1.52,5.84,5.84,0,0,1,1,2.46,4.66,4.66,0,0,1-4,5.5l.35,2.46,2.33-.35a4.53,4.53,0,0,0,1.28-.35c.23-.12.23-.23.35-.47a1.58,1.58,0,0,0,0-1.05h.35l.7,4.91h-.35c-.12-.47-.23-.82-.23-.94a1.6,1.6,0,0,0-.46-.35,4.48,4.48,0,0,0-1.28,0l-4.88.7c-.81.12-1.28.23-1.39.47a2,2,0,0,0-.12,1.29l-.35.12-.7-4.91.35-.12a5.47,5.47,0,0,0,.35,1.05,1.6,1.6,0,0,0,.46.35c.23.12.58,0,1.28-.12l2-.35-.35-2.57a4.94,4.94,0,0,1-3.37-1.17,5,5,0,0,1-1.74-3A3.08,3.08,0,0,1,358.63,104.19Zm-.93,25.72,2.56.35-.12.47a2.36,2.36,0,0,0-1.28,0,1.06,1.06,0,0,0-.7.47,7.19,7.19,0,0,0-.58,1.29l-.23.82,6,2.1a5.26,5.26,0,0,0,1.28.35c.23,0,.35-.12.46-.35a7.13,7.13,0,0,0,.58-1.29l.35.12-1.74,5.26-.35-.12a2.06,2.06,0,0,0,.12-1.4c-.12-.23-.58-.47-1.28-.82l-6-2.1-.35.82a4.25,4.25,0,0,0-.35,1.29,3,3,0,0,0,.23.82,4.42,4.42,0,0,0,1,.94l-.12.47L355,138.21Zm-5.35,12.63a3.63,3.63,0,0,1,1.86-1.87,1.88,1.88,0,0,1,1.74-.12,1.17,1.17,0,0,1,.46.58,2.28,2.28,0,0,1-.12.82,1.57,1.57,0,0,1-.81.7,2.26,2.26,0,0,1-.81-.12,1.6,1.6,0,0,0-1,0,1.39,1.39,0,0,0-.81.82,2.42,2.42,0,0,0-.23,2,4.57,4.57,0,0,0,4.88,2.69,2.57,2.57,0,0,0,2.21-1.52,2.93,2.93,0,0,0,.35-2,4.61,4.61,0,0,0-.93-1.87l.23-.23a5.2,5.2,0,0,1,1.74,2.81,3.83,3.83,0,0,1-.35,2.81,4,4,0,0,1-2.56,2,4.8,4.8,0,0,1-3.72-.58,4.64,4.64,0,0,1-2.44-2.92A5.08,5.08,0,0,1,352.35,142.54Zm-9.3.58c-5.69,8.54-14.29,16.72-25,24.09-1.74,1.29-3.6,2.46-5.46,3.63-30.8,19.29-74.38,30.29-119.58,30.29s-88.67-11-119.58-30.29c-1.86-1.17-3.72-2.34-5.46-3.62-10.69-7.37-19.29-15.67-25-24.09S34.51,126.29,34.51,118,37.42,101.15,43,92.84c6.74-9.94,17.2-19.53,30.45-27.71a175,175,0,0,1,34.86-16.49c25.33-8.89,54.62-13.8,84.6-13.8s59.27,4.91,84.6,13.8a181.65,181.65,0,0,1,34.86,16.49c13.25,8.3,23.82,17.89,30.45,27.71,5.69,8.3,8.48,16.84,8.48,25.14C351.54,126.29,348.75,134.71,343.06,143.12Z"/><path class="cls-2" d="M204.76,210.24a2.23,2.23,0,0,0-1.16.35,2.44,2.44,0,0,0-.93,1.17,4.07,4.07,0,0,0-.23,2.1,6,6,0,0,0,1,3.51,2.68,2.68,0,0,0,2.32,1.4,2.2,2.2,0,0,0,1.74-.93,4.6,4.6,0,0,0,.58-2.81,6.37,6.37,0,0,0-1.28-3.86A2.34,2.34,0,0,0,204.76,210.24Z"/><path class="cls-2" d="M95.41,192a2,2,0,0,0-1.16-.12,2.35,2.35,0,0,0-1.28.7,4.17,4.17,0,0,0-1.16,1.75,6.7,6.7,0,0,0-.46,3.63A2.43,2.43,0,0,0,93,200.19a2.34,2.34,0,0,0,2-.12,5,5,0,0,0,1.74-2.34,5.71,5.71,0,0,0,.35-4.09A3.18,3.18,0,0,0,95.41,192Z"/><path class="cls-1" d="M330.74,35.55C294.13,12.63,245.21,0,193,0S92,12.63,55.32,35.55C19.64,57.76,0,87.11,0,118s19.64,60.1,55.32,82.44C92,223.34,140.85,236,193,236s101-12.63,137.71-35.55c35.68-22.22,55.32-51.57,55.32-82.44S366.42,57.88,330.74,35.55Zm-5.46,156c-35.1,21.87-82,33.91-132.25,33.91s-97.15-12-132.25-33.91C28.24,171.19,10.34,145.11,10.34,118s17.9-53.2,50.44-73.55c35.1-21.87,82-33.91,132.25-33.91s97.15,12,132.25,33.91c32.54,20.35,50.44,46.42,50.44,73.55S357.82,171.19,325.28,191.53Z"/><path class="cls-1" d="M52.3,29.35c-.23.12-.35.23-.58.35-.7.47-1.39.82-2.09,1.29C50.55,30.4,51.37,29.93,52.3,29.35Z"/><path class="cls-2" d="M52.3,29.35c-.23.12-.35.23-.58.35A2.54,2.54,0,0,1,52.3,29.35Z"/><path class="cls-2" d="M52.3,29.35l2.79-1.75Z"/><path class="cls-5" d="M161.88,60.45H151.08l-24.87,87.82-19.87,7.6.47.59,37.65-8.19Z"/><path class="cls-5" d="M173.62,71.21l-7.55-8.42h-1l-16.5,84.31.47.59,27-1.29.46-.47,4.18-40.46-.23-.23h-8.25l-.35-.93,1.86-32.16Z"/><path class="cls-5" d="M243.46,144.53l-1.28-8L228.36,72.73l-.93-1.05L204.65,59.52l-.58.58,1.74,26.54,4.07,56.83v2.81l.35.35,32.89,1.05.35-1.05Z"/><path class="cls-6" d="M147,151.89c0-.47,0-.93-2.09-.58-1.51.23-3.49.58-5.93.93-6.39,1.17-15.92,3-27.31,5.85-10.23,2.57-21.85,6-34.17,10.17,12,8.07,27.66,14.38,41.37,18,0,0-.12-11.23,7.55-20.11C132.95,158.79,147,151.89,147,151.89ZM100.87,176.8l-3.14-1.52,4.53-3.27,2.79,1.17Zm12-9.71-2.44-.93,4.53-2.69,1.74.82Zm15.57-10.64,1.74.47-3,1.75-1.63-.7Z"/><path class="cls-5" d="M180.36,147.69l26.15-.35.58-.7v-2.92L200.93,57.3l-1.28-.23L187.33,69.46,187,70.74l-7.79,75.54.58,1.4Z"/><path class="cls-5" d="M278.68,152.36l-3-1.05-.46-1.29-.81-3.27-5-24L262.17,89.1l-3.25-16,.58-.58h6.28l.46-.35-.81-4.91-.46-.47h-5.23l-.46-.47-2.79-14.38-2.32-.12-.46.47.93,6.2-.46.47L170.48,48.64v2.1l66.59,8.07.81.7,1.63,9.35.46,1.4.7.82,12.32.7.58.47L259,97.76l10.81,49.93-.58.7H264.5l-.7-.7-12-50.51-.7-.7H237.65l-.46.47,10.11,50.28.58.47,9.06,1.52,9.65,1.52,16.85,3.63-.46-.94Z"/><path class="cls-6" d="M245.32,149.21c-2.09-.35-2.09.12-2.09.58l1.39.7c3.72,1.87,13.94,7.6,19.18,13.68,7.67,8.89,7.55,20.11,7.55,20.11,13.6-3.62,29.4-9.94,41.37-18-12.55-4.33-24.4-7.72-34.86-10.29C262.52,152.13,250.55,150,245.32,149.21Zm17.9,7.37-3-1.75,1.74-.47,3,1.4Zm24.64,13.21,4.53,3.27-3.14,1.52-4.18-3.74ZM277.4,165l-3.83-2.92,1.74-.82,4.53,2.69Z"/><path d="M183.61,170.84a4.86,4.86,0,0,0,2.32-.47,4.43,4.43,0,0,0,1.63-1.29,5.51,5.51,0,0,0,.7-1.75,24.66,24.66,0,0,0,.12-3.39v-2.69a23.73,23.73,0,0,0-.12-3.39,4,4,0,0,0-.7-1.75,4.68,4.68,0,0,0-1.63-1.29,6.75,6.75,0,0,0-2.21-.47,4.86,4.86,0,0,0-2.32.47,4.43,4.43,0,0,0-1.63,1.29,5.51,5.51,0,0,0-.7,1.75,24.66,24.66,0,0,0-.12,3.39v2.69a23.73,23.73,0,0,0,.12,3.39,4,4,0,0,0,.7,1.75,4.43,4.43,0,0,0,1.63,1.29A4.69,4.69,0,0,0,183.61,170.84Zm-.58-12a4.49,4.49,0,0,1,.12-1.52.6.6,0,0,1,.46-.23c.23,0,.46.12.46.35a4.07,4.07,0,0,1,.12,1.4V166a5.84,5.84,0,0,1-.12,1.75.54.54,0,0,1-.58.35c-.23,0-.47-.12-.47-.35a5.84,5.84,0,0,1-.12-1.75v-7.25Z"/><path d="M192.21,170.49a6.75,6.75,0,0,0,2.21.47,4.87,4.87,0,0,0,2.32-.47,4.43,4.43,0,0,0,1.63-1.29,5.51,5.51,0,0,0,.7-1.75,24.87,24.87,0,0,0,.12-3.39v-2.69a23.93,23.93,0,0,0-.12-3.39,4,4,0,0,0-.7-1.75,4.7,4.7,0,0,0-1.63-1.29,6.78,6.78,0,0,0-2.21-.47,4.88,4.88,0,0,0-2.32.47,4.43,4.43,0,0,0-1.63,1.29,5.51,5.51,0,0,0-.7,1.75,24.66,24.66,0,0,0-.12,3.39v2.69a23.73,23.73,0,0,0,.12,3.39,4,4,0,0,0,.7,1.75A5.64,5.64,0,0,0,192.21,170.49Zm1.63-11.69a4.49,4.49,0,0,1,.12-1.52.6.6,0,0,1,.46-.23c.23,0,.46.12.46.35a4.07,4.07,0,0,1,.12,1.4V166a5.84,5.84,0,0,1-.12,1.75.54.54,0,0,1-.58.35c-.23,0-.47-.12-.47-.35a5.81,5.81,0,0,1-.12-1.75v-7.25Z"/><path d="M209.3,156.1a4.43,4.43,0,0,0-1.63-1.29,6.76,6.76,0,0,0-2.21-.47,4.87,4.87,0,0,0-2.32.47,4.43,4.43,0,0,0-1.63,1.29,5.53,5.53,0,0,0-.7,1.75,24.87,24.87,0,0,0-.12,3.39v2.69a23.93,23.93,0,0,0,.12,3.39,4,4,0,0,0,.7,1.75,4.43,4.43,0,0,0,1.63,1.29,6.76,6.76,0,0,0,2.21.47,4.87,4.87,0,0,0,2.32-.47,4.43,4.43,0,0,0,1.63-1.29,5.53,5.53,0,0,0,.7-1.75,24.87,24.87,0,0,0,.12-3.39v-2.69a23.93,23.93,0,0,0-.12-3.39A4,4,0,0,0,209.3,156.1ZM206,166a5.79,5.79,0,0,1-.12,1.75.54.54,0,0,1-.58.35c-.23,0-.47-.12-.47-.35a5.84,5.84,0,0,1-.12-1.75v-7.37a4.49,4.49,0,0,1,.12-1.52.6.6,0,0,1,.47-.23c.23,0,.46.12.46.35a4.07,4.07,0,0,1,.12,1.4V166Z"/><path d="M126.67,175.75l-.81,5.38.81,5.5H129l-.81-5.5.81-5.38Z"/><path d="M123.07,175.75l-.81,5.38.81,5.5h2.32l-.81-5.5.81-5.38Z"/><path d="M134.34,172a5.48,5.48,0,0,0-3.49.82,3.68,3.68,0,0,0-1,3v1.29h4v-1.87c0-.58.23-.94.7-.94.23,0,.46.12.46.35a2.62,2.62,0,0,1,.12,1.05v2.69h-2.21v2.34H135v2.57a5.84,5.84,0,0,1-.12,1.75.54.54,0,0,1-.58.35c-.46,0-.7-.35-.7-.94v-2.46h-4v1.29a4.86,4.86,0,0,0,1,3.51,4.79,4.79,0,0,0,3.49,1.05,5.19,5.19,0,0,0,3.49-1.05,4.75,4.75,0,0,0,1.16-3.39v-7.72a3.57,3.57,0,0,0-1.16-2.92C137.13,172.24,136,172,134.34,172Z"/><path d="M149.45,183.7a2.33,2.33,0,0,0-2-2.22,6.12,6.12,0,0,1-1.28-.35,2.33,2.33,0,0,0,1.28-.35,2.48,2.48,0,0,0,1.16-.7,2.21,2.21,0,0,0,.81-1.52V176.8a3,3,0,0,1,.46-1.87h-3.72c-.35.12-.47.58-.47,1.52v2.22c0,.93-.46,1.29-1.28,1.29v-5h-3.83v13h3.83V182.3a1.17,1.17,0,0,1,1.28,1.29v2.69a2.16,2.16,0,0,0,.47,1.52h3.72a3,3,0,0,1-.46-1.87Z"/><path d="M159.33,179.84A9.15,9.15,0,0,0,159,177a3.13,3.13,0,0,0-1.39-1.64,4.79,4.79,0,0,0-2.67-.7,5.07,5.07,0,0,0-2.67.7,3.42,3.42,0,0,0-1.4,1.52,6.88,6.88,0,0,0-.35,2.46V183a9.51,9.51,0,0,0,.35,2.92,3.14,3.14,0,0,0,1.4,1.64,5.67,5.67,0,0,0,2.67.59,4.4,4.4,0,0,0,2.21-.47,3,3,0,0,0,1.39-1.29,5,5,0,0,0,.7-1.64,12.89,12.89,0,0,0,.12-2.34h-3.49v1.52a4,4,0,0,1-.12,1.4.54.54,0,0,1-.58.35c-.23,0-.35-.12-.46-.35a2.35,2.35,0,0,1-.23-1.05V178.2c0-.58,0-.94.12-1.05a.58.58,0,0,1,.93,0,2.33,2.33,0,0,1,.12,1.05v1.52h3.72Z"/><path d="M160.49,187.91h4V177.62h1.4v10.29h3.83v-13h-9.18Z"/><path d="M178,175.28a4.77,4.77,0,0,0-2.67-.58,5.36,5.36,0,0,0-2.44.47,3.18,3.18,0,0,0-1.51,1.52,5.87,5.87,0,0,0-.47,2.69v3.74a10,10,0,0,0,.23,2.22,4,4,0,0,0,.7,1.4,2.81,2.81,0,0,0,1.51.93,6.25,6.25,0,0,0,2.21.35,5.59,5.59,0,0,0,2.09-.35,3.18,3.18,0,0,0,1.4-1.05,4,4,0,0,0,.7-1.4,8.39,8.39,0,0,0,.12-1.87v-.94h-3.72v1.75a3.32,3.32,0,0,1-.12,1.29.64.64,0,0,1-.58.35.6.6,0,0,1-.46-.23,2.65,2.65,0,0,1-.12-1.17V181.6H180v-1.75a6.67,6.67,0,0,0-.46-2.92A5,5,0,0,0,178,175.28Zm-2,4.21H174.9v-.94a3,3,0,0,1,.12-1.29.6.6,0,0,1,.46-.23c.23,0,.35.12.47.35a3.32,3.32,0,0,1,.12,1.29Z"/><path d="M189.31,175.16a2.45,2.45,0,0,0-1.63-.47,3.08,3.08,0,0,0-1.39.35,3.29,3.29,0,0,0-1.16,1.05l.12-1.17h-4v14.85h4v-2.92a3.29,3.29,0,0,0,1.16,1.05,2.75,2.75,0,0,0,1.39.35,2.13,2.13,0,0,0,1.51-.47,2,2,0,0,0,.81-1.17,10.73,10.73,0,0,0,.23-2.46v-5.49a10.88,10.88,0,0,0-.12-2.22A3.3,3.3,0,0,0,189.31,175.16Zm-3,9.12a3,3,0,0,1-.12,1.29c-.12.23-.23.23-.46.23s-.46-.12-.46-.35a4.49,4.49,0,0,1-.12-1.52v-5.38a4.07,4.07,0,0,1,.12-1.4c.12-.23.23-.35.46-.35s.46.12.46.23a12.37,12.37,0,0,1,.12,1.4Z"/><path d="M190.94,177.62h2.21v10.29h4V177.62h2.21v-2.69h-8.37Z"/><path d="M200.23,187.91h4.07V175.16h1.16v12.74h4.18V172h-9.41Z"/><path d="M219.18,175.16a2.45,2.45,0,0,0-1.63-.47,3.08,3.08,0,0,0-1.39.35A3.31,3.31,0,0,0,215,176.1l.12-1.17h-4v14.85h4v-2.92a3.29,3.29,0,0,0,1.16,1.05,2.74,2.74,0,0,0,1.39.35,2.13,2.13,0,0,0,1.51-.47,2,2,0,0,0,.81-1.17,10.65,10.65,0,0,0,.23-2.46v-5.49a10.88,10.88,0,0,0-.12-2.22A2.45,2.45,0,0,0,219.18,175.16Zm-2.91,9.12a3,3,0,0,1-.12,1.29c-.12.23-.23.23-.46.23s-.46-.12-.46-.35a4.49,4.49,0,0,1-.12-1.52v-5.38a4.07,4.07,0,0,1,.12-1.4c.12-.23.23-.35.46-.35s.46.12.46.23a12.27,12.27,0,0,1,.12,1.4Z"/><path d="M229.4,176.1a3,3,0,0,0-1.51-1.05,6.25,6.25,0,0,0-2.21-.35,5.51,5.51,0,0,0-2.56.58,3.13,3.13,0,0,0-1.39,1.64,9.15,9.15,0,0,0-.35,2.81V183a12.51,12.51,0,0,0,.23,2.46,2.68,2.68,0,0,0,.7,1.4,2.78,2.78,0,0,0,1.39.82,10.62,10.62,0,0,0,2.21.23,5.59,5.59,0,0,0,2.09-.35,4.41,4.41,0,0,0,1.51-1.05,3.64,3.64,0,0,0,.7-1.52,12.91,12.91,0,0,0,.23-2.57v-3.16a8.78,8.78,0,0,0-.23-2.1C230.1,176.68,229.75,176.57,229.4,176.1Zm-3,8.3c0,.58,0,.94-.12,1.05a.58.58,0,0,1-.93,0,3,3,0,0,1-.12-1.17v-5.85a3.32,3.32,0,0,1,.12-1.29.58.58,0,0,1,.93,0,3,3,0,0,1,.12,1.29Z"/><path d="M238.58,175.28a4.77,4.77,0,0,0-2.67-.58,5.36,5.36,0,0,0-2.44.47,3.19,3.19,0,0,0-1.51,1.52,5.87,5.87,0,0,0-.46,2.69v3.74a9.88,9.88,0,0,0,.23,2.22,4,4,0,0,0,.7,1.4,2.81,2.81,0,0,0,1.51.93,6.25,6.25,0,0,0,2.21.35,5.6,5.6,0,0,0,2.09-.35,3.17,3.17,0,0,0,1.39-1.05,4,4,0,0,0,.7-1.4,8.32,8.32,0,0,0,.12-1.87v-.94h-3.72v1.75a3.32,3.32,0,0,1-.12,1.29.64.64,0,0,1-.58.35.6.6,0,0,1-.47-.23,2.63,2.63,0,0,1-.12-1.17V181.6h5.11v-1.75a6.66,6.66,0,0,0-.46-2.92A5,5,0,0,0,238.58,175.28Zm-2.09,4.21h-1.16v-.94a3,3,0,0,1,.12-1.29.6.6,0,0,1,.46-.23c.23,0,.35.12.46.35a3.32,3.32,0,0,1,.12,1.29Z"/><path d="M250.67,183.7a2.33,2.33,0,0,0-2-2.22,6.14,6.14,0,0,1-1.28-.35,2.33,2.33,0,0,0,1.28-.35,2.49,2.49,0,0,0,1.16-.7,2.22,2.22,0,0,0,.81-1.52V176.8a3,3,0,0,1,.46-1.87h-3.72c-.35.12-.47.58-.47,1.52v2.22c0,.93-.46,1.29-1.28,1.29v-5h-3.83v13h3.83V182.3a1.17,1.17,0,0,1,1.28,1.29v2.69a2.17,2.17,0,0,0,.47,1.52h3.72a3,3,0,0,1-.46-1.87Z"/><path d="M251.25,177.62h2.21v10.29h4V177.62h2.21v-2.69h-8.37Z"/><path d="M260.08,175.75l.81,5.38-.81,5.5h2.32l.81-5.5-.81-5.38Z"/><path d="M263.68,175.75l.81,5.38-.81,5.5h2.21l.93-5.5-.93-5.38Z"/><path class="cls-1" d="M111.33,42.21l-4.07-3.74,1.16-5.38-.58.23-2.79,5.85,5.69,3.27Z"/><path class="cls-1" d="M116.33,40.58,112.26,37l1.16-5.5-.58.23-2.9,6,5.81,3.16Z"/><path class="cls-1" d="M116.21,30.75a4.11,4.11,0,0,1,1.16-3.27,6.56,6.56,0,0,1,2.91-1.87,5.21,5.21,0,0,1,3.72.47,6.74,6.74,0,0,1,2.91,4L121,31.57l.23.7,5.93-1.52a6,6,0,0,1,0,3.51,6.1,6.1,0,0,1-1.39,2.57,5,5,0,0,1-2.56,1.4,6.82,6.82,0,0,1-5.93-1.17l-.23.23a7.28,7.28,0,0,0,6.86,1.52,8.25,8.25,0,0,0,5-3.39,7.06,7.06,0,0,0,.93-5.5,6,6,0,0,0-2.09-3.39,10.35,10.35,0,0,0-3.37-1.75,7.61,7.61,0,0,0-4,.12,11.83,11.83,0,0,0-3.14,1.4c-.23.23-.47.23-.58.35s-.58-.12-1-.47l-.35.12.93,4.56Z"/><path class="cls-1" d="M131.78,27.6c.23.12.35.12.46.23a2.79,2.79,0,0,1,.35,1.29l.93,4.79a3.19,3.19,0,0,1,0,1.52c-.12.23-.58.47-1.28.58l.12.35,5.23-1.05-.12-.35a5.31,5.31,0,0,1-1.16.12.64.64,0,0,1-.58-.35,4.55,4.55,0,0,1-.35-1.29L134.92,31c.23,0,.35-.12.47-.12a1.46,1.46,0,0,1,.7.12c.23.12.35.35.58.58A21.61,21.61,0,0,0,140,34.73l3-.58-.12-.35a1.82,1.82,0,0,1-1.4-.12,12.54,12.54,0,0,1-1.74-1.52,6.83,6.83,0,0,0-2-1.75,4.21,4.21,0,0,0-.81-.35c.23-.35.46-.58.58-.82a4.55,4.55,0,0,0,.35-1.29c.12-.58.35-.94.7-.94h1.51a1.89,1.89,0,0,0,.7-.35.9.9,0,0,0-.35-1.29,2.56,2.56,0,0,0-1-.12,4.1,4.1,0,0,0-1,.47,1.57,1.57,0,0,0-.7.82,6,6,0,0,0-.46,1.52,2.4,2.4,0,0,1-.81,1.64,2.57,2.57,0,0,1-1.28.58h-.35l-.35-1.75c-.12-.82-.23-1.29-.12-1.4l.35-.35a2.62,2.62,0,0,1,1.16-.35l-.12-.35-5.23,1.05.12.35A2.9,2.9,0,0,1,131.78,27.6Z"/><path class="cls-1" d="M144.45,33a4.34,4.34,0,0,0,3.37.82,3.77,3.77,0,0,0,2.56-1.4,4.46,4.46,0,0,0,1.16-3l-.35-.12a4.63,4.63,0,0,1-.93,1.87,4.26,4.26,0,0,1-1.86,1.05,3.11,3.11,0,0,1-2.67-.82,5.35,5.35,0,0,1-1.39-2.81,4.51,4.51,0,0,1,.47-2.81,2.27,2.27,0,0,1,1.74-1.05,1.9,1.9,0,0,1,1.16.12c.35.12.46.47.58.82a5.61,5.61,0,0,0,.35.82c.23.23.58.23,1,.23a.7.7,0,0,0,.7-.35,1.26,1.26,0,0,0,.23-.7,2,2,0,0,0-1.28-1.29,4.83,4.83,0,0,0-2.67-.35,5.43,5.43,0,0,0-3.37,1.87,4.31,4.31,0,0,0-.93,3.74A6.28,6.28,0,0,0,144.45,33Z"/><path class="cls-1" d="M153.4,23.74a1.61,1.61,0,0,1,.46.35,2.4,2.4,0,0,1,.23,1.29l.58,4.91a2.64,2.64,0,0,1-.12,1.52c-.12.23-.58.35-1.28.47v.35L158.4,32v-.35a2.8,2.8,0,0,1-1,0c-.12,0-.35-.23-.46-.35a2.4,2.4,0,0,1-.23-1.29l-.7-6.43,4.53-.58.7,6.43a2.65,2.65,0,0,1-.12,1.52,2.24,2.24,0,0,1-1.28.47v.35l5.11-.58v-.35a2.8,2.8,0,0,1-1,0,1.61,1.61,0,0,1-.47-.35,2.4,2.4,0,0,1-.23-1.29l-.58-4.91c-.12-.7-.12-1.17,0-1.29l.35-.35a1.67,1.67,0,0,1,1-.23V22.1l-11.62,1.4v.35A1.17,1.17,0,0,1,153.4,23.74Z"/><path class="cls-1" d="M170.83,31.1a4,4,0,0,0,2.79-1.4A5.24,5.24,0,0,0,174.9,27l-.35-.12a4.29,4.29,0,0,1-1.16,1.87,2.84,2.84,0,0,1-1.74.58,3.55,3.55,0,0,1-2.79-.94,4.46,4.46,0,0,1-1.39-3.16l7.32-.58a3.82,3.82,0,0,0-1.4-2.69,4.39,4.39,0,0,0-3-.82A4.47,4.47,0,0,0,167,22.8a5.13,5.13,0,0,0-1.16,3.86,4.73,4.73,0,0,0,1.63,3.39A4.86,4.86,0,0,0,170.83,31.1ZM168,22.68a3.09,3.09,0,0,1,1.63-.82,2.49,2.49,0,0,1,1.28.23,3.14,3.14,0,0,1,.93.82,6.24,6.24,0,0,1,.35,1.29l-4.88.35A2.88,2.88,0,0,1,168,22.68Z"/><path class="cls-1" d="M176.18,22.1a.87.87,0,0,1,.58.12l.35.35a2.62,2.62,0,0,1,.12,1.17l.35,8.77a3.32,3.32,0,0,1-.12,1.29q-.17.35-.35.35a3.37,3.37,0,0,1-1,.23h-.35v.35l5.58-.23v-.35a2.9,2.9,0,0,1-1.16-.12,1.6,1.6,0,0,1-.46-.35,4.79,4.79,0,0,1-.23-1.17l-.12-2.81a4.73,4.73,0,0,0,1,.58,3.2,3.2,0,0,0,1.51.12,4.21,4.21,0,0,0,3.25-1.4,5.07,5.07,0,0,0,1.39-4.09,4.77,4.77,0,0,0-1.39-3.39,3.18,3.18,0,0,0-2.67-.94,3.44,3.44,0,0,0-1.74.58,6,6,0,0,0-1.63,1.75L179,20.7h-.46L175.25,22l.12.35C175.83,22.22,176.06,22.22,176.18,22.1Zm4.3.23a1.72,1.72,0,0,1,1-.23,2.36,2.36,0,0,1,1.74.7,4.64,4.64,0,0,1,1.16,3.27,4.38,4.38,0,0,1-.81,2.92,2.16,2.16,0,0,1-1.86.82,3.36,3.36,0,0,1-1.63-.35,1.49,1.49,0,0,1-.81-1.05,4.49,4.49,0,0,1-.12-1.52l-.12-3.51A10.08,10.08,0,0,1,180.48,22.33Z"/><path class="cls-1" d="M188.26,22c.23-.23.46-.47.7-.47a4,4,0,0,1,1.39-.12h.93v6.43a2.2,2.2,0,0,1-.35,1.52,2,2,0,0,1-1.39.35v.35h5.81V29.7a4.4,4.4,0,0,1-1.51-.12,1.6,1.6,0,0,1-.46-.35,3.32,3.32,0,0,1-.12-1.29V21.52h.93a4,4,0,0,1,1.4.12c.23.12.58.23.7.58a12.18,12.18,0,0,1,.47,1.17h.46l-.46-2.57-9.18.12-.47,2.57h.47A4.55,4.55,0,0,1,188.26,22Z"/><path class="cls-1" d="M210.46,30.05a4.11,4.11,0,0,1-1.86-.47,2.79,2.79,0,0,1-.35-1.75l.7-10.52,7.32.47-.7,10.52a2.62,2.62,0,0,1-.46,1.75,2.6,2.6,0,0,1-1.86.23v.35l6.74.47v-.35a4.1,4.1,0,0,1-1.86-.47,2.78,2.78,0,0,1-.35-1.75l.58-8.77a2.62,2.62,0,0,1,.46-1.75,2.61,2.61,0,0,1,1.86-.23v-.35l-16.27-1.05v.35a4.1,4.1,0,0,1,1.86.47,2.78,2.78,0,0,1,.35,1.75L206,27.71a2.62,2.62,0,0,1-.46,1.75,2.6,2.6,0,0,1-1.86.23v.35l6.74.47Z"/><path class="cls-1" d="M221.73,33.56a6.4,6.4,0,0,1-.23,1.29c-.12.23-.23.23-.35.35a3.56,3.56,0,0,1-1.16.12h-.23v.35l5.58.58V35.9a6.49,6.49,0,0,1-1.16-.23.91.91,0,0,1-.46-.47,1.91,1.91,0,0,1,0-1.17l.35-2.81a3.8,3.8,0,0,0,.93.7,2.89,2.89,0,0,0,1.51.35,4.29,4.29,0,0,0,3.37-.94,5.21,5.21,0,0,0,2-3.74,4.77,4.77,0,0,0-.93-3.62,3.54,3.54,0,0,0-2.56-1.4,3,3,0,0,0-1.74.23,6.62,6.62,0,0,0-1.86,1.52l.23-2.1h-.47l-3.37.82.12.35a2,2,0,0,1,.7-.12.89.89,0,0,1,.58.23c.12.12.23.23.23.35V25Zm2.56-5.26.35-3.51a4.71,4.71,0,0,1,1.51-.94,3.57,3.57,0,0,1,1.16-.12,2.13,2.13,0,0,1,1.63.94,5.1,5.1,0,0,1,.7,3.39,4,4,0,0,1-1.28,2.81,2.37,2.37,0,0,1-2,.58,2.94,2.94,0,0,1-1.51-.58,2.42,2.42,0,0,1-.7-1.17A8,8,0,0,1,224.29,28.3Z"/><path class="cls-1" d="M237.54,33.68a5.69,5.69,0,0,0,2.79-.23,5,5,0,0,0,2.21-1.64,5.22,5.22,0,0,0,1-2.34,4.71,4.71,0,0,0-.7-3.27,5.11,5.11,0,0,0-3.6-2.22,4.7,4.7,0,0,0-2.56.23,5.38,5.38,0,0,0-2.21,1.52,6,6,0,0,0-1.16,2.46,4.17,4.17,0,0,0,.7,3.27A5.11,5.11,0,0,0,237.54,33.68Zm-1.86-6.08a4.44,4.44,0,0,1,.7-2,2.2,2.2,0,0,1,1.16-.94,2.4,2.4,0,0,1,1.28-.12,2.85,2.85,0,0,1,2,1.29,5.83,5.83,0,0,1,.58,4.09,4.45,4.45,0,0,1-1.16,2.69,2.32,2.32,0,0,1-2,.47A2.76,2.76,0,0,1,236,31.22,6.29,6.29,0,0,1,235.68,27.6Z"/><path class="cls-1" d="M249.16,35.78a4.17,4.17,0,0,0,3.14-.58A4.29,4.29,0,0,0,254.15,33l-.35-.23a3.64,3.64,0,0,1-1.63,1.4,3.3,3.3,0,0,1-1.86.12,3.74,3.74,0,0,1-2.44-1.75,4.21,4.21,0,0,1-.46-3.39l7.2,1.52a3.57,3.57,0,0,0-.58-2.92,4.22,4.22,0,0,0-2.67-1.64,4.64,4.64,0,0,0-5.81,4,4.62,4.62,0,0,0,.7,3.74A4.42,4.42,0,0,0,249.16,35.78ZM248.69,27a2.57,2.57,0,0,1,1.86-.35,2.21,2.21,0,0,1,1.16.58,1.7,1.7,0,0,1,.7,1.05,2.31,2.31,0,0,1,0,1.29l-4.88-.94A2.51,2.51,0,0,1,248.69,27Z"/><path class="cls-1" d="M254.5,36.48l5.11,1.29.12-.35a4.68,4.68,0,0,1-1.16-.35.63.63,0,0,1-.35-.47,4,4,0,0,1,.23-1.29l.58-2.46c.23,0,.35.12.46.12a2.52,2.52,0,0,1,.58.35,5.61,5.61,0,0,1,.35.82c.46,1.4,1,2.92,1.63,4.33l3,.7.12-.35a1.67,1.67,0,0,1-1.16-.7,9.48,9.48,0,0,1-.93-2.1,14.51,14.51,0,0,0-1-2.46,1.55,1.55,0,0,0-.7-.58,3.72,3.72,0,0,0,.81-.47,5.34,5.34,0,0,0,.81-1.05c.35-.47.7-.7,1-.58a1.8,1.8,0,0,1,.7.35,2,2,0,0,0,.58.23,1,1,0,0,0,.81-.12c.23-.12.35-.23.35-.47a.56.56,0,0,0-.23-.7,1.75,1.75,0,0,0-.93-.47,2,2,0,0,0-1.16,0,8,8,0,0,0-.93.35,7.61,7.61,0,0,0-1,1.29,2.49,2.49,0,0,1-1.39,1.17,2.82,2.82,0,0,1-1.4,0,.42.42,0,0,1-.35-.12l.46-1.75a4.17,4.17,0,0,1,.46-1.29c.12-.12.35-.12.47-.23a5.93,5.93,0,0,1,1.16.12l.12-.35L256.6,27.6l-.12.35c.58.12.93.23,1,.47a1.61,1.61,0,0,1,.35.47,4,4,0,0,1-.23,1.29L256.48,35a4.16,4.16,0,0,1-.58,1.4,2.65,2.65,0,0,1-1.4,0Z"/><path class="cls-1" d="M268.22,31.69a1.1,1.1,0,0,1,.81-.23,10.3,10.3,0,0,1,1.28.23l.93.23-1.86,6.2c-.23.82-.46,1.17-.7,1.29a2.35,2.35,0,0,1-1.51-.12l-.12.35,5.58,1.64.12-.35a10,10,0,0,1-1.39-.58c-.23-.12-.35-.23-.35-.47a3.61,3.61,0,0,1,.23-1.29l1.86-6.2.93.23a3.27,3.27,0,0,1,1.28.58,1.71,1.71,0,0,1,.58.7A4,4,0,0,1,276,35.2l.46.12.23-2.57-8.83-2.57-1.16,2.34.46.12A7.59,7.59,0,0,1,268.22,31.69Z"/><path class="cls-1" d="M280.19,44.08l.58.23,5.81-3-2.67-6.08-.58-.23,1,5.5Z"/><path class="cls-1" d="M275.19,42.33l.7.23,5.81-3L279,33.44l-.7-.12,1.16,5.38Z"/><path class="cls-1" d="M23,115.65a6.75,6.75,0,0,0,5.35-1.29,6.94,6.94,0,0,0,2.91-4.68,7.35,7.35,0,0,0-.93-5.26,6.39,6.39,0,0,0-4.88-3.27A6.76,6.76,0,0,0,20,102.32a7.66,7.66,0,0,0-2.91,4.79,7.07,7.07,0,0,0,1.16,5.5A7.28,7.28,0,0,0,23,115.65Zm-5.11-8.42a4.19,4.19,0,0,1,1.86-2.92,7.84,7.84,0,0,1,5.35-.7,7.38,7.38,0,0,1,4.65,2.34,3.89,3.89,0,0,1,.81,3.39,4.09,4.09,0,0,1-2,3,7.39,7.39,0,0,1-5.46.59c-2.09-.35-3.6-1.05-4.42-2.22A4,4,0,0,1,17.9,107.23Z"/><path class="cls-1" d="M22.43,128.16a4.54,4.54,0,0,0,3.14-1.75,5,5,0,0,0,1-3.62,4.32,4.32,0,0,0-3.49-3.86,9.21,9.21,0,0,1,2.56.12,4.4,4.4,0,0,1,2,.82,3.17,3.17,0,0,1,1,1.17,6.41,6.41,0,0,1,.46,2.22,9.7,9.7,0,0,0,.46,2.1,2.76,2.76,0,0,0,.7,1.05,2.62,2.62,0,0,0,1.51.7v-.47c-.23-.23-.46-.35-.46-.58a8.76,8.76,0,0,1-.35-2,10.85,10.85,0,0,0-.81-3.27,5.72,5.72,0,0,0-1.39-1.52A11.76,11.76,0,0,0,26,118.22a10.4,10.4,0,0,0-3.83-.12A7.63,7.63,0,0,0,18,119.86a4.1,4.1,0,0,0-1.28,3.86,4.89,4.89,0,0,0,2,3.51A5,5,0,0,0,22.43,128.16Zm-4.88-4a2.78,2.78,0,0,1,.93-2.34,6.43,6.43,0,0,1,3.49-1.4,4.51,4.51,0,0,1,2.67.35,2.29,2.29,0,0,1,1,1.75,2.39,2.39,0,0,1-1,2.34,5.5,5.5,0,0,1-3.25,1.29,4.44,4.44,0,0,1-2.91-.35A1.87,1.87,0,0,1,17.55,124.18Z"/><path class="cls-1" d="M32,143.24a.88.88,0,0,1,.46.23,1.64,1.64,0,0,1,.46.82l.35-.12-1.86-4.56-.35.12c.23.47.35.82.23,1.05a.61.61,0,0,1-.23.47,3.25,3.25,0,0,1-1.16.59l-4.53,2c-.7.23-1,.47-1.16.35s-.35-.35-.7-.94L23,142.07a3.83,3.83,0,0,1-.35-1.17c0-.12.35-.35.93-.59l4.76-2.1a3.77,3.77,0,0,1,1.16-.35.64.64,0,0,1,.58.23,1.07,1.07,0,0,1,.46.7l.35-.12-1.86-4.33-.35.12c.23.47.35.82.23,1.05a.61.61,0,0,1-.23.47,3.27,3.27,0,0,1-1.16.58l-4.53,2a5,5,0,0,1-1.16.35.43.43,0,0,1-.35-.12A3.76,3.76,0,0,1,21,138l-.46-1.05a5.35,5.35,0,0,1-.35-1.29,2.48,2.48,0,0,1,.93-.58l4.65-2c.7-.35,1-.47,1.28-.35s.35.12.46.23a2.51,2.51,0,0,1,.46.82l.35-.12-1.86-4.56-.35.12c.23.47.35.82.23,1.05a.61.61,0,0,1-.23.47,3.25,3.25,0,0,1-1.16.58l-4.53,2a2.2,2.2,0,0,1-1.51.35,2,2,0,0,1-.81-1.05l-.35.12,4.88,11.46a3.88,3.88,0,0,1,.46,2.81,2.55,2.55,0,0,1-1.39,1.52l.12.35,2.67-1.17a2.15,2.15,0,0,1-.23-1.05c0-.23.12-.35.35-.58s.7-.35,1.51-.7l4.07-1.75C31.38,143.24,31.73,143.12,32,143.24Z"/><path class="cls-1" d="M32.31,148.39l4,5.73a3.72,3.72,0,0,0,1.63-2.46,3.92,3.92,0,0,0-.81-2.92,4.82,4.82,0,0,0-3-2,4.87,4.87,0,0,0-3.83,1.05,4.88,4.88,0,0,0-2.09,3,4.08,4.08,0,0,0,.7,3.27,3.66,3.66,0,0,0,2.56,1.64,3.76,3.76,0,0,0,2.79-.35v-.35a3.18,3.18,0,0,1-2.09,0,2.71,2.71,0,0,1-1.39-1.17,3.88,3.88,0,0,1-.58-2.81A6.86,6.86,0,0,1,32.31,148.39Zm2.56-.7a2.58,2.58,0,0,1,1.51.93,2,2,0,0,1,.35,1.17,1.93,1.93,0,0,1-.23,1.17,3.43,3.43,0,0,1-.93.93L32.89,148A2.88,2.88,0,0,1,34.86,147.69Z"/><path class="cls-1" d="M39.74,163.82a3.36,3.36,0,0,1-1.86-1.05,2.79,2.79,0,0,1-.7-2.69,4.72,4.72,0,0,1,1.63-2.69,3.8,3.8,0,0,1,2.56-1.05,2.09,2.09,0,0,1,1.74.82,1.43,1.43,0,0,1,.46,1.05,1.33,1.33,0,0,1-.35.93c-.23.35-.46.59-.46.7a1.33,1.33,0,0,0,.35.93,1,1,0,0,0,.7.35.85.85,0,0,0,.7-.23,2,2,0,0,0,.46-1.75,4.44,4.44,0,0,0-1.16-2.34,5.15,5.15,0,0,0-3.25-1.64,4.76,4.76,0,0,0-3.6,1.29,4.45,4.45,0,0,0-1.74,3.39,3.9,3.9,0,0,0,1,3.16,4.15,4.15,0,0,0,2.56,1.29,5.15,5.15,0,0,0,3.14-.7l-.12-.35A2.83,2.83,0,0,1,39.74,163.82Z"/><path class="cls-1" d="M45.55,171.42a1.06,1.06,0,0,1-.12-.59c0-.23.35-.58.81-1.05l4.3-4.79.7.58a5.91,5.91,0,0,1,.93,1.05,1.25,1.25,0,0,1,.12.94,3,3,0,0,1-.46,1.17l.35.35,1.39-2.22-6.51-6-2,1.64.35.35a4,4,0,0,1,1.28-.59,1.71,1.71,0,0,1,.81.12,4.22,4.22,0,0,1,1,.82l.7.58L45,168.62c-.58.58-.93.93-1.28.93a2.12,2.12,0,0,1-1.16-.7l-.23.23,4.07,3.74.23-.23C45.9,171.89,45.67,171.54,45.55,171.42Z"/><path class="cls-1" d="M59.85,174.7a2.26,2.26,0,0,0,.46-1.4,2.16,2.16,0,0,0-.58-1.4,10.73,10.73,0,0,0-1.63-1.52l-3.72-2.81-.23.35q.7.53.7.7c0,.12.12.35.12.47a3.54,3.54,0,0,1-.7,1.05l-3,4a4.21,4.21,0,0,1-1,1.05c-.23.12-.7-.12-1.16-.47l-.23.35,4,3a8.72,8.72,0,0,0,2.91,1.52,2.14,2.14,0,0,0,2.09-.82c.7-.94.46-2.22-.81-3.62C58.22,175.63,59.27,175.51,59.85,174.7ZM56,177.27a1.6,1.6,0,0,1-1.28.7,3.12,3.12,0,0,1-1.86-.82,7,7,0,0,1-.93-.93l2.21-2.92a2.56,2.56,0,0,1,.58.47,4.09,4.09,0,0,1,1.51,1.75A1.83,1.83,0,0,1,56,177.27Zm1-3.16a4,4,0,0,1-2.09-.93,2,2,0,0,1-.46-.35L56.6,170l.46.35A4.71,4.71,0,0,1,58.57,172a1.28,1.28,0,0,1-.23,1.4A1.6,1.6,0,0,1,57.06,174.11Z"/><path class="cls-1" d="M67.17,176.45a5.55,5.55,0,0,0-2.32-.82,4.12,4.12,0,0,0-2.56.59,5.8,5.8,0,0,0-2,1.75,5.31,5.31,0,0,0-.81,3.27,4.32,4.32,0,0,0,2.09,3.39,5.05,5.05,0,0,0,2.44.82,4.85,4.85,0,0,0,2.56-.58,4.53,4.53,0,0,0,1.86-1.75,4.17,4.17,0,0,0,.7-3.27A3.93,3.93,0,0,0,67.17,176.45Zm-.7,6.2a4.69,4.69,0,0,1-2.09,2,2.38,2.38,0,0,1-2-.23,2.67,2.67,0,0,1-1.16-2.46,6.27,6.27,0,0,1,1.16-3.39A6,6,0,0,1,63.8,177a2.22,2.22,0,0,1,1.39-.47,2,2,0,0,1,1.16.35,2.51,2.51,0,0,1,1.16,1.87A5.18,5.18,0,0,1,66.47,182.65Z"/><path class="cls-1" d="M81.7,184.87a4.86,4.86,0,0,0-3.6-.35,4.49,4.49,0,0,0-2.91,2.57,4.81,4.81,0,0,0-.46,3.74,4.2,4.2,0,0,0,2.09,2.57,3.76,3.76,0,0,0,2.79.35A4.9,4.9,0,0,0,82.28,192l-.23-.23a4,4,0,0,1-1.86.93,4.31,4.31,0,0,1-2.09-.23,2.59,2.59,0,0,1-1.51-2.22,4.79,4.79,0,0,1,.58-3,3.42,3.42,0,0,1,2-1.87,2.36,2.36,0,0,1,2,.12,1.84,1.84,0,0,1,.81.82,1.63,1.63,0,0,1,0,1.05c-.12.35-.23.7-.12.82a1.57,1.57,0,0,0,.7.82,1,1,0,0,0,.81.12,1.16,1.16,0,0,0,.58-.47,1.91,1.91,0,0,0-.12-1.75A4.9,4.9,0,0,0,81.7,184.87Z"/><path class="cls-1" d="M98.78,194.46A4.63,4.63,0,0,0,96,191.53a4.46,4.46,0,0,0-2.44-.35,5.55,5.55,0,0,0-2.44,1.05,5.71,5.71,0,0,0-1.63,2.1,4.85,4.85,0,0,0-.12,3.39A4.46,4.46,0,0,0,92,200.66a4.87,4.87,0,0,0,2.56.35A5.55,5.55,0,0,0,97,200a4.44,4.44,0,0,0,1.51-2.11A4.35,4.35,0,0,0,98.78,194.46Zm-2.32,3.27a4.25,4.25,0,0,1-1.74,2.34,2.32,2.32,0,0,1-2,.12A2.77,2.77,0,0,1,91.11,198a8,8,0,0,1,.46-3.62,4.16,4.16,0,0,1,1.16-1.75,3.48,3.48,0,0,1,1.28-.7,1.9,1.9,0,0,1,1.16.12,2.63,2.63,0,0,1,1.51,1.64A4.67,4.67,0,0,1,96.46,197.73Z"/><path class="cls-1" d="M104.47,195.86l2,.7a4,4,0,0,1,1.63.94c.23.23.23.93.23,1.75l.46.12.47-2.57-7.9-2.81-.12.35a4.78,4.78,0,0,1,1,.47.89.89,0,0,1,.23.47,5.34,5.34,0,0,1-.35,1.29l-1.63,4.68a2.39,2.39,0,0,1-.81,1.29c-.23.12-.7,0-1.39-.23l-.12.35L103,204.4l.12-.35a2.22,2.22,0,0,1-.93-.47.89.89,0,0,1-.23-.47,7.35,7.35,0,0,1,.35-1.29Z"/><path class="cls-1" d="M116.33,198.78a3,3,0,0,0-1.74,0,5.13,5.13,0,0,0-2,1.17l.58-2.11-.35-.12-3.37.23v.35a1.47,1.47,0,0,1,.7.12c.23.12.35.12.46.23s.12.23.12.47-.12.58-.23,1.17L108,208.72a4.33,4.33,0,0,1-.47,1.17.6.6,0,0,1-.46.23,3.2,3.2,0,0,1-1-.12l-.23-.12-.12.35,5.11,1.52.12-.35a2.17,2.17,0,0,1-1-.47c-.12-.12-.23-.35-.35-.47s0-.59.23-1.17l.81-2.69a1.84,1.84,0,0,0,.81.82,4.58,4.58,0,0,0,4.65.23,5.48,5.48,0,0,0,2.56-3.39,4.62,4.62,0,0,0-.23-3.74A2.55,2.55,0,0,0,116.33,198.78Zm.12,5.85a4.64,4.64,0,0,1-1.74,2.57,2.33,2.33,0,0,1-2,.23,2.7,2.7,0,0,1-1.28-.82,1.68,1.68,0,0,1-.47-1.17,5.74,5.74,0,0,1,.35-1.4l1-3.27c.81-.35,1.28-.59,1.63-.7a3.19,3.19,0,0,1,1,.12,2.48,2.48,0,0,1,1.39,1.29C116.91,202.06,116.91,203.23,116.44,204.63Z"/><path class="cls-1" d="M127,210.48a.4.4,0,0,1-.23-.12,1.21,1.21,0,0,1-.12-.47,10.38,10.38,0,0,1,.35-1.64l.81-3a3.67,3.67,0,0,0,.23-1.75,2,2,0,0,0-.7-1.17,4.37,4.37,0,0,0-2.09-.94,4.49,4.49,0,0,0-2.79,0,2.55,2.55,0,0,0-1.39,1.29,1,1,0,0,0,.12.82,1.17,1.17,0,0,0,.58.47.77.77,0,0,0,.7-.12,1.17,1.17,0,0,0,.47-.58l.12-.58a1.55,1.55,0,0,1,.58-.7,2,2,0,0,1,1.16,0,2.05,2.05,0,0,1,1.28.82,2.83,2.83,0,0,1,0,2l-.12.35c-1.86.12-3.14.35-4,.47a5.55,5.55,0,0,0-1.86.82,1.58,1.58,0,0,0-.58,1.05,2.12,2.12,0,0,0,.23,1.87,2,2,0,0,0,1.51,1.05,4.73,4.73,0,0,0,1.28.12c.23,0,1-.35,2.21-.7a1.92,1.92,0,0,0,0,1.17,1.19,1.19,0,0,0,.7.58c.7.23,1.63-.12,2.67-.93l.12-.58c-.58.23-.93.47-1,.47S127.14,210.59,127,210.48Zm-2-1.4a4.2,4.2,0,0,1-2.44.47,1.81,1.81,0,0,1-.93-.7,1.62,1.62,0,0,1-.12-1.29,2.55,2.55,0,0,1,.58-.94,3.87,3.87,0,0,1,1.4-.58,14.17,14.17,0,0,1,2.32-.35Z"/><path class="cls-1" d="M141.66,205.33l-4.77-1.05-.12.35a5.39,5.39,0,0,1,1,.35.9.9,0,0,1,.23.58,5.4,5.4,0,0,1-.12,1.17l-.35,1.87-4.3-.93.35-1.87a3.44,3.44,0,0,1,.35-1.17,1.62,1.62,0,0,1,.46-.35c.23-.12.58,0,1,.12l.12-.35L130.85,203l-.12.35a5.39,5.39,0,0,1,1,.35c.23.12.23.35.35.59s0,.58-.12,1.17l-1,4.79a2.64,2.64,0,0,1-.58,1.4c-.23.23-.7.23-1.28.12l-.12.35,4.77,1.05.12-.35a5.41,5.41,0,0,1-1-.35c-.23-.12-.23-.35-.35-.58a5.41,5.41,0,0,1,.12-1.17l.46-2.22,4.3.94-.47,2.22c-.12.82-.35,1.29-.58,1.4a2.3,2.3,0,0,1-1.28,0l-.12.35,4.76,1.05.12-.35a5.39,5.39,0,0,1-1-.35c-.23-.12-.23-.35-.35-.58a5.41,5.41,0,0,1,.12-1.17l1-4.79a3.46,3.46,0,0,1,.35-1.17,1.62,1.62,0,0,1,.46-.35c.23-.12.58,0,1,.12Z"/><path class="cls-1" d="M148.87,207c.47.12.81.23.93.47a1.71,1.71,0,0,1,.12,1.17l-5.11,3.86.7-4.21a3.52,3.52,0,0,1,.35-1.29.6.6,0,0,1,.46-.23c.23-.12.46,0,1,0l.12-.35-4.88-.82-.12.35a5.44,5.44,0,0,1,1,.35c.23.12.23.23.35.47s0,.58-.12,1.29l-.81,4.91a4.74,4.74,0,0,1-.47,1.4c-.23.23-.7.23-1.28.12l-.12.35,4.65.82.12-.35c-.58-.12-.81-.23-.93-.47a3.26,3.26,0,0,1-.12-1.17l5.11-3.86-.7,4.33c-.12.82-.35,1.29-.58,1.4a2.05,2.05,0,0,1-1.28.12l-.12.35,4.88.82.12-.35a5.39,5.39,0,0,1-1-.35,1.63,1.63,0,0,1-.35-.47c-.12-.23,0-.58.12-1.29l.81-4.91a3.52,3.52,0,0,1,.35-1.29.6.6,0,0,1,.46-.23h1l.12-.35-4.65-.82Z"/><path class="cls-1" d="M159.91,208.49a1.5,1.5,0,0,1,.93.23c.23.12.35.23.35.47v1.29l-.23,2a4.07,4.07,0,0,1-2.32.35,2.31,2.31,0,0,1-1-.23.91.91,0,0,1-.46-.47v-.93l.12-1.17a3.49,3.49,0,0,1,.35-1.29.6.6,0,0,1,.46-.23c.23-.12.46-.12,1,0v-.35l-4.76-.58v.35a2.18,2.18,0,0,1,.93.23.63.63,0,0,1,.35.47v1.17l-.23,1.64v.93a1,1,0,0,0,.58.59,3.86,3.86,0,0,0,1.51.47,8.89,8.89,0,0,0,3.49-.35l-.23,2.22a4.56,4.56,0,0,1-.35,1.29.62.62,0,0,1-.46.35h-1.16v.35l5.11.58v-.35a1.5,1.5,0,0,1-.93-.23c-.23-.12-.35-.23-.35-.47v-1.29l.58-4.91a3.52,3.52,0,0,1,.35-1.29.6.6,0,0,1,.46-.23c.23-.12.46-.12,1,0v-.35l-4.88-.58Z"/><path class="cls-1" d="M174.43,212.93a3.69,3.69,0,0,0-.81-2.81,4.45,4.45,0,0,0-2.67-1.29,4.77,4.77,0,0,0-3.49,1.05,5.06,5.06,0,0,0-1.63,3.63,4.67,4.67,0,0,0,1,3.63,4.23,4.23,0,0,0,3,1.52,3.67,3.67,0,0,0,2.9-.93,4.6,4.6,0,0,0,1.51-2.46L174,215a3.28,3.28,0,0,1-1.39,1.64,2.18,2.18,0,0,1-1.74.35,3.3,3.3,0,0,1-2.44-1.4,4.36,4.36,0,0,1-.81-3.27Zm-5.93-2.81a2.21,2.21,0,0,1,1.74-.47,1.66,1.66,0,0,1,1.16.47,2.46,2.46,0,0,1,.7.94,3.66,3.66,0,0,1,.12,1.29l-4.65-.35A2,2,0,0,1,168.51,210.13Z"/><path class="cls-1" d="M182,210.24a2.31,2.31,0,0,1,1,.23c.23.12.35.23.35.47v1.17l-.12,2-4.42-.23.12-2a12.29,12.29,0,0,1,.12-1.29c.12-.23.23-.35.46-.35a2.56,2.56,0,0,1,1-.12v-.35l-4.88-.23v.35a2.31,2.31,0,0,1,1,.23c.23.12.35.23.35.47a3.72,3.72,0,0,1,0,1.17l-.23,4.91a2.2,2.2,0,0,1-.35,1.52c-.23.23-.58.35-1.28.23v.35l4.88.23v-.35a2.31,2.31,0,0,1-1-.23c-.23-.12-.35-.23-.35-.47a3.76,3.76,0,0,1,0-1.17l.12-2.34,4.42.23-.12,2.34a2.21,2.21,0,0,1-.35,1.52c-.23.23-.58.23-1.28.23v.35l4.88.23V219a2.31,2.31,0,0,1-1-.23c-.23-.12-.35-.23-.35-.47a3.72,3.72,0,0,1,0-1.17l.23-4.91a12.26,12.26,0,0,1,.12-1.29c.12-.23.23-.35.46-.35s.58-.12,1-.12v-.35l-4.88-.23Z"/><path class="cls-1" d="M198,218.78a.92.92,0,0,1-.47-.47c0-.23-.12-.58-.12-1.17v-4.91a3.31,3.31,0,0,1,.12-1.29.92.92,0,0,1,.47-.47,2.56,2.56,0,0,1,1-.12V210h-4.88v.35c.46,0,.93,0,1,.23s.35.23.35.47.12.58.12,1.17v2h-4.42v-2a3.31,3.31,0,0,1,.12-1.29.91.91,0,0,1,.46-.47,2.56,2.56,0,0,1,1-.12V210H188v.35a2.56,2.56,0,0,1,1,.12.91.91,0,0,1,.47.47,3,3,0,0,1,.12,1.17V217a3.64,3.64,0,0,1-.23,1.52,1.67,1.67,0,0,1-1.28.35v.35H193v-.35a2.56,2.56,0,0,1-1-.12.92.92,0,0,1-.47-.47,3,3,0,0,1-.12-1.17V214.8h4.42v2.34a2.21,2.21,0,0,1-.35,1.52,1.67,1.67,0,0,1-1.28.35v.35h4.88V219A7.38,7.38,0,0,1,198,218.78Z"/><path class="cls-1" d="M205,209.54a4.17,4.17,0,0,0-2.32.7,4.91,4.91,0,0,0-1.74,2,5.19,5.19,0,0,0-.58,2.57,4.75,4.75,0,0,0,1.28,3.16,4.38,4.38,0,0,0,3.72,1.52,5,5,0,0,0,2.56-.7,5.8,5.8,0,0,0,1.74-2,6.89,6.89,0,0,0,.58-2.57,4.26,4.26,0,0,0-1.28-3A4.52,4.52,0,0,0,205,209.54Zm2.44,8.19a2.6,2.6,0,0,1-1.74.93,2.68,2.68,0,0,1-2.32-1.4,7.8,7.8,0,0,1-1-3.51,10.57,10.57,0,0,1,.23-2.1,2.44,2.44,0,0,1,.93-1.17,2.23,2.23,0,0,1,1.16-.35,2.52,2.52,0,0,1,2.09.94,5.7,5.7,0,0,1,1.28,3.86A3.91,3.91,0,0,1,207.44,217.73Z"/><path class="cls-1" d="M216.62,207.44a5.51,5.51,0,0,0,2.44-.82,2,2,0,0,0,1-1.52.61.61,0,0,0-.23-.47.51.51,0,0,0-.58-.12c-.47,0-.81.47-1,1.17a2.26,2.26,0,0,1-.58,1.05,1.41,1.41,0,0,1-1,.35,2,2,0,0,1-.81-.12,1.8,1.8,0,0,1-.81-.82c-.46-.82-.93-1.17-1.39-1.17-.23,0-.35.12-.58.23a.52.52,0,0,0-.12.59,1.58,1.58,0,0,0,1,1.4A4.64,4.64,0,0,0,216.62,207.44Z"/><path class="cls-1" d="M222,217.49a1.61,1.61,0,0,1-.46-.35,4.92,4.92,0,0,1-.23-1.29l-.35-4.91a4.22,4.22,0,0,1,0-1.29l.35-.35a1.49,1.49,0,0,1,.93-.23v-.35l-4.65.35v.35c.47,0,.81,0,1,.23a2.21,2.21,0,0,1,.46,1.05l-4,5-.35-4.21a4.23,4.23,0,0,1,0-1.29l.35-.35a1.49,1.49,0,0,1,.93-.23v-.35l-4.88.35V210a2.56,2.56,0,0,1,1,.12q.35.18.35.35a4.92,4.92,0,0,1,.23,1.29l.35,4.91a2.65,2.65,0,0,1-.12,1.52c-.12.23-.58.35-1.28.47V219l4.65-.35v-.35c-.58,0-.93,0-1-.23a1.56,1.56,0,0,1-.35-1.17l4-5,.35,4.33c.12.82,0,1.29-.23,1.52a2.18,2.18,0,0,1-1.16.47v.35l4.88-.35v-.35A2,2,0,0,0,222,217.49Z"/><path class="cls-1" d="M237.77,207.91a4.45,4.45,0,0,0-3.84-1.05,5.74,5.74,0,0,0-2.32.94,4.11,4.11,0,0,0-1.51,2.1,5.12,5.12,0,0,0-.35,2.57,4.39,4.39,0,0,0,1.63,2.92,4.5,4.5,0,0,0,3.83,1.17,4.6,4.6,0,0,0,2.44-1.05,5,5,0,0,0,1.51-2.22,5,5,0,0,0,.23-2.57A4.42,4.42,0,0,0,237.77,207.91Zm-.58,6.9a2.26,2.26,0,0,1-1.63,1.05,2.79,2.79,0,0,1-2.56-1.17,7.48,7.48,0,0,1-1.4-3.39,4.14,4.14,0,0,1,.12-2.11,2.45,2.45,0,0,1,.81-1.29,1.49,1.49,0,0,1,1.16-.47,2.34,2.34,0,0,1,2.09.7,6,6,0,0,1,1.74,3.74A5.28,5.28,0,0,1,237.19,214.8Z"/><path class="cls-1" d="M239.74,206.27v2.57l.47-.12a1.89,1.89,0,0,1,.35-1.29,1,1,0,0,1,.58-.58,4.47,4.47,0,0,1,1.28-.35l.93-.12,1.16,6.32a3.1,3.1,0,0,1,0,1.52c-.12.23-.58.47-1.28.59l.12.35,5.46-1.05-.12-.35a7.87,7.87,0,0,1-1.4.12.6.6,0,0,1-.46-.23,3.52,3.52,0,0,1-.35-1.29L245.32,206l.81-.12a6.63,6.63,0,0,1,1.39-.12,1,1,0,0,1,.81.47,4,4,0,0,1,.7,1.05l.46-.12-.93-2.34Z"/><path class="cls-1" d="M256.83,207.2c1.28-.59,1.86-1.4,1.63-2.46a1.92,1.92,0,0,0-.81-1.29,2.33,2.33,0,0,0-1.51-.47,9.33,9.33,0,0,0-2.21.35l-4.53,1.05.12.35a4,4,0,0,1,1-.12c.23.12.35.12.46.23a2.81,2.81,0,0,1,.35,1.29l1,4.79a3.75,3.75,0,0,1,.12,1.52c-.12.23-.46.47-1.16.59l.12.35,4.88-1.05a7.35,7.35,0,0,0,3-1.29,1.89,1.89,0,0,0,.7-2.1C259.85,207.67,258.69,207.2,256.83,207.2Zm-4-2.92.58-.12a4.93,4.93,0,0,1,2.21-.12,1.25,1.25,0,0,1,.93,1.05,1.62,1.62,0,0,1-.35,1.4,3.51,3.51,0,0,1-2,1.05,1.54,1.54,0,0,0-.58.12Zm4.77,6.55a3.11,3.11,0,0,1-1.74.93,5.18,5.18,0,0,1-1.28.12l-.81-3.51c.23-.12.58-.12.81-.23a3.91,3.91,0,0,1,2.32,0,1.93,1.93,0,0,1,1.16,1.17A2.37,2.37,0,0,1,257.64,210.83Z"/><path class="cls-1" d="M269.38,205.33a4.43,4.43,0,0,1-.7,2,2.58,2.58,0,0,1-1.51.94,3.45,3.45,0,0,1-2.79-.47,4.48,4.48,0,0,1-1.86-2.81l6.74-1.87a3.71,3.71,0,0,0-1.74-2.34,3.54,3.54,0,0,0-2.9-.23,4.63,4.63,0,0,0-2.91,2.22,5.14,5.14,0,0,0-.35,4,4.34,4.34,0,0,0,2.21,3,4.82,4.82,0,0,0,3.37.47,4.36,4.36,0,0,0,2.44-1.87,6.26,6.26,0,0,0,.7-2.81Zm-6.74-2.92a2.08,2.08,0,0,1,1.4-1.05,2,2,0,0,1,1.16,0,2.09,2.09,0,0,1,1,.7,3.58,3.58,0,0,1,.58,1.17l-4.53,1.29A2.89,2.89,0,0,1,262.64,202.41Z"/><path class="cls-1" d="M277.63,206c-.23,0-.35-.12-.58-.23a5.08,5.08,0,0,1-.58-1.17l-2-6.2.81-.23a3.23,3.23,0,0,1,1.28-.23,1.25,1.25,0,0,1,.81.35,6.68,6.68,0,0,1,.81.94l.46-.12-1.16-2.22-8.37,2.69.35,2.57.46-.12a4.85,4.85,0,0,1,.12-1.4,1.08,1.08,0,0,1,.46-.7,3.9,3.9,0,0,1,1.16-.47l.81-.23,2,6.2c.23.82.35,1.29.12,1.52a2.49,2.49,0,0,1-1.16.7l.12.35,5.23-1.64-.12-.35A3.12,3.12,0,0,0,277.63,206Z"/><path class="cls-1" d="M288.9,198.67a4,4,0,0,1-.58,2,3,3,0,0,1-1.63,1.29,2.75,2.75,0,0,1-2.67-.35,5,5,0,0,1-1.86-2.46,4.7,4.7,0,0,1-.12-2.81,2.2,2.2,0,0,1,1.39-1.29,2.08,2.08,0,0,1,1.16-.12,1,1,0,0,1,.7.7,7,7,0,0,0,.46.7,1.6,1.6,0,0,0,1,0,.82.82,0,0,0,.58-.47.75.75,0,0,0,0-.7,2.24,2.24,0,0,0-1.4-1.05,4.8,4.8,0,0,0-2.56.12,4.31,4.31,0,0,0-2.67,2.46,5.47,5.47,0,0,0-.12,3.86,4.76,4.76,0,0,0,2.44,2.92,4,4,0,0,0,3.25.23,3.66,3.66,0,0,0,2.09-1.87,5.71,5.71,0,0,0,.58-3.16Z"/><path class="cls-1" d="M297.27,198.55a1,1,0,0,1-.58-.12,3.28,3.28,0,0,1-.58-1.17l-2.56-6,.81-.35c.58-.23,1-.35,1.28-.47a1.1,1.1,0,0,1,.81.23,3.3,3.3,0,0,1,.81.93l.46-.23-1.39-2.1-8,3.39.58,2.46.46-.23a2.81,2.81,0,0,1,0-1.4,1.07,1.07,0,0,1,.46-.7,10.38,10.38,0,0,1,1.16-.58l.81-.35,2.56,6a2.23,2.23,0,0,1,.35,1.52,2,2,0,0,1-1.16.82l.12.35,5.11-2.1-.12-.35A3.63,3.63,0,0,1,297.27,198.55Z"/><path class="cls-1" d="M305.29,189.9q1.74-1.4,1-2.81a2.29,2.29,0,0,0-1-1.05,2.25,2.25,0,0,0-1.51-.12,8.26,8.26,0,0,0-2.09.82l-4.18,2.1.12.35a3.14,3.14,0,0,1,.93-.35c.23,0,.35.12.47.12a7.4,7.4,0,0,1,.7,1.05l2.21,4.44a3.69,3.69,0,0,1,.46,1.4c0,.23-.35.58-.93.82l.12.35,4.53-2.22a7.25,7.25,0,0,0,2.67-2,2.18,2.18,0,0,0,.23-2.22C308.31,189.78,307.15,189.43,305.29,189.9Zm-3,1.29L300.76,188l.46-.23a3.53,3.53,0,0,1,2.09-.58,1.68,1.68,0,0,1,1.16.82,1.74,1.74,0,0,1,0,1.52,3.18,3.18,0,0,1-1.74,1.4A1.27,1.27,0,0,1,302.27,191.18Zm4.65,2.1a2.85,2.85,0,0,1-1.51,1.29,8.78,8.78,0,0,1-1.28.47l-1.63-3.27.7-.35a4.84,4.84,0,0,1,2.32-.58,1.51,1.51,0,0,1,1.39.94A1.74,1.74,0,0,1,306.91,193.29Z"/><path class="cls-1" d="M317.14,185a4.07,4.07,0,0,1-.23,2.11,2.74,2.74,0,0,1-1.28,1.29,3.32,3.32,0,0,1-2.79.23,4.84,4.84,0,0,1-2.56-2.34l6-3.51a3.36,3.36,0,0,0-2.32-1.87,3.72,3.72,0,0,0-2.91.47,4.57,4.57,0,0,0-1.51,6.67,4.63,4.63,0,0,0,2.9,2.46,3.84,3.84,0,0,0,3.37-.47,4,4,0,0,0,1.86-2.34,5,5,0,0,0-.12-2.92Zm-7.32-1.17a2.73,2.73,0,0,1,1.16-1.4,1.91,1.91,0,0,1,1.16-.23,2,2,0,0,1,1.16.35,3.47,3.47,0,0,1,.81.94l-4.07,2.34A2.46,2.46,0,0,1,309.82,183.82Z"/><path class="cls-1" d="M328.76,181a.87.87,0,0,1-.58-.12c-.12-.12-.35-.47-.7-.94l-2.67-4.09a5.27,5.27,0,0,1-.58-1.05,1.06,1.06,0,0,1,.12-.59,2,2,0,0,1,.7-.7l-.23-.35-4.07,2.69.23.35a3.56,3.56,0,0,1,1-.47.87.87,0,0,1,.58.12c.12.12.35.47.7.94l1,1.64-3.6,2.46-1-1.64a5.27,5.27,0,0,1-.58-1.05,1.06,1.06,0,0,1,.12-.58,2,2,0,0,1,.7-.7l-.23-.35-4.07,2.69.23.35a2.28,2.28,0,0,1,.93-.47.86.86,0,0,1,.58.12c.12.12.35.47.7.94l2.67,4.09a2.25,2.25,0,0,1,.58,1.4c0,.23-.35.58-.81.93l.23.35,4.07-2.69-.23-.35a2.3,2.3,0,0,1-.93.47.86.86,0,0,1-.58-.12c-.12-.12-.35-.47-.7-.93l-1.28-1.87,3.6-2.46,1.28,1.87a2.85,2.85,0,0,1,.58,1.4c0,.23-.35.58-.81.93l.23.35,4.07-2.69-.23-.35C329.34,180.78,329,180.89,328.76,181Z"/><path class="cls-1" d="M338.87,172.94a.86.86,0,0,1-.58-.12,5,5,0,0,1-.81-.82l-3.14-3.86a7.91,7.91,0,0,1-.7-1.05,1.06,1.06,0,0,1,.12-.58,2,2,0,0,1,.7-.7l-.23-.35-3.83,3,.23.35a2.92,2.92,0,0,1,.93-.58.86.86,0,0,1,.58.12,5,5,0,0,1,.81.82l1.28,1.52-3.37,2.81L329.58,172a7.88,7.88,0,0,1-.7-1.05,1.06,1.06,0,0,1,.12-.58,2,2,0,0,1,.7-.7l-.23-.35-3.84,3,.23.35a2.91,2.91,0,0,1,.93-.58.87.87,0,0,1,.58.12,5,5,0,0,1,.81.82l3.14,3.86a2.78,2.78,0,0,1,.7,1.29c0,.23-.23.59-.81,1.05l.23.35,3.84-3-.23-.35a1.39,1.39,0,0,1-.93.47.87.87,0,0,1-.58-.12,5,5,0,0,1-.81-.82l-1.4-1.75,3.37-2.81,1.39,1.75a2.58,2.58,0,0,1,.7,1.4c0,.23-.23.58-.81,1.05l.23.35,3.83-3-.23-.35C339.45,172.71,339.22,172.94,338.87,172.94Z"/><path class="cls-1" d="M345.26,160.9a4.87,4.87,0,0,0-3-1.4,4.31,4.31,0,0,0-3.72,1.52,4.89,4.89,0,0,0-1.28,2.1,4.81,4.81,0,0,0,0,2.57,5.74,5.74,0,0,0,1.28,2.34,4.87,4.87,0,0,0,3,1.4,4.55,4.55,0,0,0,3.72-1.4,5.11,5.11,0,0,0,1.39-2.22,4.3,4.3,0,0,0-.12-2.69A5.88,5.88,0,0,0,345.26,160.9Zm-.12,6.31a2.42,2.42,0,0,1-2.67.59,6.82,6.82,0,0,1-3.14-1.87,3.85,3.85,0,0,1-1.16-1.75,2.34,2.34,0,0,1-.12-1.52,2.26,2.26,0,0,1,.58-1.05,2.33,2.33,0,0,1,2.09-.7,6.25,6.25,0,0,1,3.6,2,4.84,4.84,0,0,1,1.51,2.46A2.66,2.66,0,0,1,345.15,167.21Z"/><path class="cls-1" d="M356,154.12a.88.88,0,0,1-.47.12,3.51,3.51,0,0,1-1-.7l-4-3c-.58-.47-.93-.7-.93-.93v-.47a6.43,6.43,0,0,1,.46-.94l-.35-.23-2.9,3.74.35.23c.35-.35.58-.58.93-.58a2.67,2.67,0,0,1,1,.35l1,6.31-3.37-2.57c-.58-.47-.93-.7-.93-.93V154c0-.23.23-.47.46-.93l-.35-.23-3,4,.35.23q.52-.7.7-.7a.87.87,0,0,1,.46-.12,3.52,3.52,0,0,1,1,.7l4,3a3,3,0,0,1,1,1.17c.12.23-.12.7-.46,1.17l.35.23,2.79-3.74-.35-.23c-.35.47-.58.59-.93.59a1.88,1.88,0,0,1-1-.47l-1-6.31,3.49,2.69a3,3,0,0,1,1,1.17,2.17,2.17,0,0,1-.46,1.17l.35.23,3-3.86-.35-.23C356.42,153.77,356.19,154,356,154.12Z"/><path class="cls-1" d="M344,151.66a1.93,1.93,0,0,1-1.16,0c-.93-.23-1.51-.12-1.74.23s-.23.35-.12.59.12.35.35.47a1.8,1.8,0,0,0,1.74.23,5.79,5.79,0,0,0,3.14-4.21c.12-.94,0-1.4-.46-1.75a.51.51,0,0,0-.58-.12c-.23,0-.35.12-.46.35s-.23.82.12,1.52a2.63,2.63,0,0,1,.35,1.17,1.64,1.64,0,0,1-.46,1.05A2.44,2.44,0,0,0,344,151.66Z"/><path class="cls-1" d="M354.33,149.09a4.81,4.81,0,0,0,3.72.59,4.09,4.09,0,0,0,2.56-2,3.83,3.83,0,0,0,.35-2.81,5.22,5.22,0,0,0-1.74-2.81l-.23.23a4.61,4.61,0,0,1,.93,1.87,2.93,2.93,0,0,1-.35,2,2.73,2.73,0,0,1-2.21,1.52,5.6,5.6,0,0,1-3-.59,3.31,3.31,0,0,1-1.86-2.1,2.47,2.47,0,0,1,.23-2,1.84,1.84,0,0,1,.81-.82,1.6,1.6,0,0,1,1,0c.35.12.7.23.81.12a1.57,1.57,0,0,0,.81-.7,1,1,0,0,0,.12-.82.78.78,0,0,0-.46-.58,1.88,1.88,0,0,0-1.74.12,4.74,4.74,0,0,0-1.86,1.87,5.07,5.07,0,0,0,2.09,6.9Z"/><path class="cls-1" d="M357.35,138.92a4.24,4.24,0,0,1-1-.94,1.12,1.12,0,0,1-.23-.82,4.25,4.25,0,0,1,.35-1.29l.35-.82,6,2.1c.7.23,1.16.47,1.28.82a2.06,2.06,0,0,1-.12,1.4l.35.12,1.74-5.26-.35-.12a4.48,4.48,0,0,1-.58,1.29c-.12.23-.23.23-.46.35a5.26,5.26,0,0,1-1.28-.35l-6-2.1.23-.82a4.47,4.47,0,0,1,.58-1.29c.12-.23.46-.35.7-.47a2.33,2.33,0,0,1,1.28,0l.12-.47-2.56-.35-2.79,8.3,2.21,1.17Z"/><path class="cls-1" d="M365.83,120.67q-2.44-.35-3.14,4.21l-.12,1.29-2-.23c-.81-.12-1.28-.23-1.28-.35a.61.61,0,0,1-.23-.47,8.83,8.83,0,0,1,.12-1.4h-.35l-.7,5.26h.35c.12-.47.12-.82.35-1.05l.35-.35c.12-.12.58,0,1.28,0l4.88.7c.7.12,1.28.23,1.39.47a2.09,2.09,0,0,1,.12,1.29h.35l.58-4.79a4.86,4.86,0,0,0-.35-3.27C367,121.14,366.65,120.67,365.83,120.67Zm1.28,4.8a2.27,2.27,0,0,1-.35,1.17l-3.6-.47a4.15,4.15,0,0,1,.12-.7c.23-2,1-2.81,2.32-2.69a1.91,1.91,0,0,1,1.28.82A2.5,2.5,0,0,1,367.11,125.47Z"/><path class="cls-1" d="M359.56,111a4.94,4.94,0,0,0,3.37,1.17l.35,2.57-2,.35a7.63,7.63,0,0,1-1.28.12.62.62,0,0,1-.46-.35,2.57,2.57,0,0,1-.35-1.05l-.35.12.7,4.91.35-.12c-.12-.7-.12-1.05.12-1.29s.58-.35,1.39-.47l4.88-.7a2.21,2.21,0,0,1,1.28,0,1.62,1.62,0,0,1,.47.35c.12.12.12.47.23.93h.35l-.7-4.91h-.35a1.59,1.59,0,0,1,0,1.05,1.62,1.62,0,0,1-.35.47,3.46,3.46,0,0,1-1.28.35l-2.32.35-.35-2.46a4.9,4.9,0,0,0,3.14-1.87,4.39,4.39,0,0,0,.81-3.62,4.67,4.67,0,0,0-1-2.46A5,5,0,0,0,364,102.9a5.23,5.23,0,0,0-2.67-.23,4.39,4.39,0,0,0-3,1.87,5.16,5.16,0,0,0-.81,3.74A8.88,8.88,0,0,0,359.56,111Zm0-5.26a6.93,6.93,0,0,1,3.25-1.4c2.32-.35,3.72.23,4,1.87a3,3,0,0,1-1,2.57,5.93,5.93,0,0,1-3.25,1.4,3.83,3.83,0,0,1-2.67-.23,2.42,2.42,0,0,1-1.16-1.64A2.47,2.47,0,0,1,359.56,105.71Z"/></g></g></svg>